<mxfile host="65bd71144e">
    <diagram name="Page-1" id="HMw-GucFTOMP_fQ18mRF">
        <mxGraphModel dx="2401" dy="1187" grid="1" gridSize="10" guides="1" tooltips="1" connect="1" arrows="1" fold="1" page="1" pageScale="1" pageWidth="1169" pageHeight="827" math="0" shadow="0">
            <root>
                <mxCell id="0"/>
                <mxCell id="1" parent="0"/>
                <mxCell id="NjSvuLWsNGHZwNvL6HN8-2" value="" style="rounded=0;whiteSpace=wrap;html=1;strokeWidth=4;fontSize=10;fillColor=none;strokeColor=#009999;fontColor=default;" parent="1" vertex="1">
                    <mxGeometry x="20" y="77" width="1140" height="583" as="geometry"/>
                </mxCell>
                <mxCell id="NjSvuLWsNGHZwNvL6HN8-3" value="" style="rounded=0;whiteSpace=wrap;html=1;fillColor=none;fontColor=default;strokeColor=#006EAF;strokeWidth=3;" parent="1" vertex="1">
                    <mxGeometry x="770" y="110" width="380" height="470" as="geometry"/>
                </mxCell>
                <mxCell id="356" value="" style="rounded=0;whiteSpace=wrap;html=1;strokeColor=#6F0000;strokeWidth=3;fontSize=12;fillColor=none;fontColor=#ffffff;dashed=1;" parent="1" vertex="1">
                    <mxGeometry x="784" y="371.74" width="350" height="130.13" as="geometry"/>
                </mxCell>
                <mxCell id="562" style="edgeStyle=none;html=1;exitX=0.999;exitY=0.483;exitDx=0;exitDy=0;strokeColor=#005700;strokeWidth=2;startArrow=classic;startFill=1;endArrow=none;endFill=0;exitPerimeter=0;" parent="1" source="553" edge="1">
                    <mxGeometry relative="1" as="geometry">
                        <mxPoint x="1124" y="430" as="targetPoint"/>
                    </mxGeometry>
                </mxCell>
                <mxCell id="553" value="" style="rounded=0;whiteSpace=wrap;html=1;strokeColor=#005700;fontSize=11;fillColor=none;gradientColor=#97d077;dashed=1;strokeWidth=2;" parent="1" vertex="1">
                    <mxGeometry x="970.49" y="381.87" width="139.6" height="100" as="geometry"/>
                </mxCell>
                <mxCell id="560" style="edgeStyle=none;html=1;exitX=-0.004;exitY=0.482;exitDx=0;exitDy=0;strokeColor=#005700;strokeWidth=2;startArrow=classic;startFill=1;endArrow=none;endFill=0;exitPerimeter=0;" parent="1" source="552" edge="1">
                    <mxGeometry relative="1" as="geometry">
                        <mxPoint x="794" y="430" as="targetPoint"/>
                    </mxGeometry>
                </mxCell>
                <mxCell id="552" value="" style="rounded=0;whiteSpace=wrap;html=1;strokeColor=#005700;fontSize=11;fillColor=none;gradientColor=#97d077;dashed=1;strokeWidth=2;" parent="1" vertex="1">
                    <mxGeometry x="809.83" y="382.42" width="139.6" height="99.45" as="geometry"/>
                </mxCell>
                <mxCell id="378" value="&lt;font style=&quot;font-size: 12px;&quot;&gt;HDD storage node-0&lt;/font&gt;" style="rounded=0;whiteSpace=wrap;html=1;fillColor=none;strokeWidth=1;strokeColor=#BD7000;fontColor=default;" parent="1" vertex="1">
                    <mxGeometry x="819.2" y="391.74" width="120" height="20" as="geometry"/>
                </mxCell>
                <mxCell id="431" value="" style="rounded=0;whiteSpace=wrap;html=1;strokeColor=#BD7000;strokeWidth=3;fontSize=14;fillColor=none;" parent="1" vertex="1">
                    <mxGeometry x="980.29" y="392.43" width="120" height="60" as="geometry"/>
                </mxCell>
                <mxCell id="430" value="" style="rounded=0;whiteSpace=wrap;html=1;strokeColor=#BD7000;strokeWidth=3;fontSize=14;fillColor=none;" parent="1" vertex="1">
                    <mxGeometry x="819.2" y="392.43" width="120" height="60" as="geometry"/>
                </mxCell>
                <mxCell id="347" value="" style="rounded=0;whiteSpace=wrap;html=1;strokeColor=#6F0000;strokeWidth=3;fontSize=12;fillColor=none;fontColor=#ffffff;dashed=1;" parent="1" vertex="1">
                    <mxGeometry x="784" y="181.87" width="350" height="170" as="geometry"/>
                </mxCell>
                <mxCell id="538" value="" style="rounded=0;whiteSpace=wrap;html=1;strokeColor=#314354;strokeWidth=2;fontSize=16;fillColor=none;rotation=90;fontColor=#ffffff;" parent="1" vertex="1">
                    <mxGeometry x="809.83" y="191.75" width="128.34" height="128.01" as="geometry"/>
                </mxCell>
                <mxCell id="345" value="&lt;span style=&quot;&quot;&gt;&lt;font style=&quot;&quot;&gt;&lt;font color=&quot;#314354&quot; style=&quot;font-size: 35px;&quot;&gt;...&lt;/font&gt;&lt;br&gt;&lt;/font&gt;&lt;/span&gt;" style="text;html=1;align=center;verticalAlign=middle;resizable=0;points=[];autosize=1;strokeColor=none;fillColor=none;fontColor=default;rotation=0;fontStyle=1" parent="1" vertex="1">
                    <mxGeometry x="848.9999999999999" y="304.77999999999986" width="50" height="60" as="geometry"/>
                </mxCell>
                <mxCell id="NjSvuLWsNGHZwNvL6HN8-10" value="" style="rounded=0;whiteSpace=wrap;html=1;fillColor=none;fontColor=default;strokeColor=#A50040;strokeWidth=3;" parent="1" vertex="1">
                    <mxGeometry x="34" y="110" width="730" height="540" as="geometry"/>
                </mxCell>
                <mxCell id="83" value="" style="rounded=0;whiteSpace=wrap;html=1;strokeColor=#82b366;strokeWidth=2;fontSize=16;fillColor=none;dashed=1;fontColor=default;" parent="1" vertex="1">
                    <mxGeometry x="134" y="410" width="240" height="200" as="geometry"/>
                </mxCell>
                <mxCell id="452" value="" style="rounded=0;whiteSpace=wrap;html=1;strokeColor=#6F0000;strokeWidth=3;fontSize=12;fillColor=none;fontColor=#ffffff;" parent="1" vertex="1">
                    <mxGeometry x="174" y="417" width="160" height="171" as="geometry"/>
                </mxCell>
                <mxCell id="326" value="" style="rounded=0;whiteSpace=wrap;html=1;strokeColor=#314354;strokeWidth=2;fontSize=16;fillColor=none;rotation=90;fontColor=#ffffff;" parent="1" vertex="1">
                    <mxGeometry x="979.62" y="192.04" width="129.39" height="128.5" as="geometry"/>
                </mxCell>
                <mxCell id="67" value="" style="rounded=0;whiteSpace=wrap;html=1;strokeColor=#82b366;strokeWidth=2;fontSize=16;fillColor=none;dashed=1;fontColor=default;" parent="1" vertex="1">
                    <mxGeometry x="64" y="157.09000000000003" width="390" height="160" as="geometry"/>
                </mxCell>
                <mxCell id="403" style="edgeStyle=none;html=1;exitX=0.917;exitY=0.525;exitDx=0;exitDy=0;exitPerimeter=0;startArrow=classic;startFill=1;endArrow=none;endFill=0;fillColor=#dae8fc;gradientColor=#7ea6e0;strokeColor=#6c8ebf;" parent="1" source="318" edge="1">
                    <mxGeometry relative="1" as="geometry">
                        <mxPoint x="635.5499999999998" y="743.0899999999999" as="targetPoint"/>
                    </mxGeometry>
                </mxCell>
                <mxCell id="404" style="edgeStyle=none;html=1;exitX=0.75;exitY=0.692;exitDx=0;exitDy=0;exitPerimeter=0;startArrow=classic;startFill=1;endArrow=none;endFill=0;fillColor=#dae8fc;gradientColor=#7ea6e0;strokeColor=#6c8ebf;" parent="1" source="318" edge="1">
                    <mxGeometry relative="1" as="geometry">
                        <mxPoint x="595.5499999999998" y="793.09" as="targetPoint"/>
                    </mxGeometry>
                </mxCell>
                <mxCell id="405" style="edgeStyle=none;html=1;exitX=0.75;exitY=0.358;exitDx=0;exitDy=0;exitPerimeter=0;startArrow=classic;startFill=1;endArrow=none;endFill=0;fillColor=#dae8fc;gradientColor=#7ea6e0;strokeColor=#6c8ebf;" parent="1" source="318" edge="1">
                    <mxGeometry relative="1" as="geometry">
                        <mxPoint x="595.5499999999998" y="693.09" as="targetPoint"/>
                    </mxGeometry>
                </mxCell>
                <mxCell id="318" value="" style="sketch=0;points=[[0,0,0],[0.25,0,0],[0.5,0,0],[0.75,0,0],[1,0,0],[0,1,0],[0.25,1,0],[0.5,1,0],[0.75,1,0],[1,1,0],[0,0.25,0],[0,0.5,0],[0,0.75,0],[1,0.25,0],[1,0.5,0],[1,0.75,0]];outlineConnect=0;fontColor=#232F3E;gradientColor=#F78E04;gradientDirection=north;fillColor=none;strokeColor=#EA6B66;dashed=0;verticalLabelPosition=bottom;verticalAlign=top;align=center;html=1;fontSize=12;fontStyle=0;aspect=fixed;shape=mxgraph.aws4.resourceIcon;resIcon=mxgraph.aws4.managed_blockchain;" parent="1" vertex="1">
                    <mxGeometry x="465.55000000000007" y="680.09" width="120" height="120" as="geometry"/>
                </mxCell>
                <mxCell id="79" style="edgeStyle=none;html=1;exitX=0.756;exitY=1.01;exitDx=0;exitDy=0;strokeWidth=2;fontSize=14;startArrow=classic;startFill=1;endArrow=none;endFill=0;fillColor=#a20025;strokeColor=#6F0000;exitPerimeter=0;" parent="1" source="32" edge="1">
                    <mxGeometry relative="1" as="geometry">
                        <mxPoint x="324" y="330" as="targetPoint"/>
                    </mxGeometry>
                </mxCell>
                <mxCell id="32" value="" style="rounded=0;whiteSpace=wrap;html=1;fillColor=none;fontColor=#ffffff;strokeColor=#A50040;strokeWidth=3;dashed=1;" parent="1" vertex="1">
                    <mxGeometry x="262.45000000000005" y="167.09000000000003" width="81.55" height="140" as="geometry"/>
                </mxCell>
                <mxCell id="31" value="" style="rounded=0;whiteSpace=wrap;html=1;fillColor=none;fontColor=#000000;strokeColor=#C73500;strokeWidth=3;dashed=1;" parent="1" vertex="1">
                    <mxGeometry x="174" y="167.09000000000003" width="80" height="140" as="geometry"/>
                </mxCell>
                <mxCell id="77" style="edgeStyle=none;html=1;exitX=0.25;exitY=1;exitDx=0;exitDy=0;strokeWidth=2;fontSize=14;startArrow=classic;startFill=1;endArrow=none;endFill=0;fillColor=#a20025;strokeColor=#6F0000;" parent="1" source="33" edge="1">
                    <mxGeometry relative="1" as="geometry">
                        <mxPoint x="254" y="330" as="targetPoint"/>
                        <Array as="points">
                            <mxPoint x="384" y="330"/>
                        </Array>
                    </mxGeometry>
                </mxCell>
                <mxCell id="33" value="" style="rounded=0;whiteSpace=wrap;html=1;fillColor=none;strokeColor=#BD7000;strokeWidth=3;dashed=1;gradientColor=#ffa500;" parent="1" vertex="1">
                    <mxGeometry x="364" y="167.09000000000003" width="78.45" height="140" as="geometry"/>
                </mxCell>
                <mxCell id="34" style="edgeStyle=none;html=1;fillColor=#dae8fc;gradientColor=#7ea6e0;strokeColor=#6c8ebf;" parent="1" edge="1">
                    <mxGeometry relative="1" as="geometry">
                        <mxPoint x="164" y="740" as="targetPoint"/>
                        <mxPoint x="164" y="197.09000000000003" as="sourcePoint"/>
                    </mxGeometry>
                </mxCell>
                <mxCell id="76" style="edgeStyle=none;html=1;exitX=0.75;exitY=1;exitDx=0;exitDy=0;strokeWidth=2;fontSize=14;endArrow=none;endFill=0;startArrow=classic;startFill=1;fillColor=#a20025;strokeColor=#6F0000;" parent="1" source="NjSvuLWsNGHZwNvL6HN8-16" edge="1">
                    <mxGeometry relative="1" as="geometry">
                        <mxPoint x="254" y="330" as="targetPoint"/>
                        <Array as="points">
                            <mxPoint x="134" y="330"/>
                        </Array>
                    </mxGeometry>
                </mxCell>
                <mxCell id="NjSvuLWsNGHZwNvL6HN8-16" value="" style="rounded=0;whiteSpace=wrap;html=1;fillColor=none;fontColor=default;strokeColor=#B20000;strokeWidth=3;dashed=1;" parent="1" vertex="1">
                    <mxGeometry x="74" y="167.09000000000003" width="80" height="140" as="geometry"/>
                </mxCell>
                <mxCell id="NjSvuLWsNGHZwNvL6HN8-18" value="&lt;font style=&quot;font-size: 18px;&quot;&gt;&lt;b&gt;global-region-0&lt;/b&gt;&lt;/font&gt;" style="text;html=1;align=center;verticalAlign=middle;resizable=0;points=[];autosize=1;strokeColor=none;fillColor=none;fontSize=16;fontColor=default;" parent="1" vertex="1">
                    <mxGeometry x="19.0000000000002" y="47" width="150" height="40" as="geometry"/>
                </mxCell>
                <mxCell id="NjSvuLWsNGHZwNvL6HN8-21" value="&lt;font style=&quot;font-size: 18px;&quot;&gt;&lt;b&gt;Computing Environment&lt;/b&gt;&lt;/font&gt;" style="text;html=1;align=center;verticalAlign=middle;resizable=0;points=[];autosize=1;strokeColor=none;fillColor=none;fontSize=16;fontColor=default;" parent="1" vertex="1">
                    <mxGeometry x="23.180000000000227" y="76.99999999999997" width="230" height="40" as="geometry"/>
                </mxCell>
                <mxCell id="NjSvuLWsNGHZwNvL6HN8-88" value="&lt;font style=&quot;font-size: 16px;&quot;&gt;Computational&amp;nbsp;network 0&lt;/font&gt;" style="text;html=1;align=center;verticalAlign=middle;resizable=0;points=[];autosize=1;strokeColor=none;fillColor=none;fontSize=16;fontColor=default;rotation=-90;" parent="1" vertex="1">
                    <mxGeometry x="-49.99999999999977" y="221.90999999999997" width="200" height="30" as="geometry"/>
                </mxCell>
                <mxCell id="NjSvuLWsNGHZwNvL6HN8-110" value="&lt;font style=&quot;font-size: 18px;&quot;&gt;&lt;b&gt;Client Environment&amp;nbsp;&lt;/b&gt;&lt;/font&gt;" style="text;html=1;align=center;verticalAlign=middle;resizable=0;points=[];autosize=1;strokeColor=none;fillColor=none;fontSize=17;fontColor=default;" parent="1" vertex="1">
                    <mxGeometry x="764" y="77" width="190" height="40" as="geometry"/>
                </mxCell>
                <mxCell id="2" value="&lt;span&gt;&lt;font style=&quot;font-size: 16px;&quot;&gt;KVM&lt;br&gt;CN&lt;/font&gt;&lt;/span&gt;" style="rounded=0;whiteSpace=wrap;html=1;fillColor=none;strokeWidth=2;strokeColor=#B20000;fontColor=default;fontStyle=0" parent="1" vertex="1">
                    <mxGeometry x="84" y="257.09000000000003" width="40" height="40" as="geometry"/>
                </mxCell>
                <mxCell id="3" value="&lt;span&gt;&lt;font style=&quot;font-size: 16px;&quot;&gt;KVM&lt;br&gt;CN&lt;/font&gt;&lt;/span&gt;" style="rounded=0;whiteSpace=wrap;html=1;fillColor=none;strokeWidth=2;strokeColor=#B20000;fontColor=default;fontStyle=0" parent="1" vertex="1">
                    <mxGeometry x="84" y="217.09000000000003" width="40" height="40" as="geometry"/>
                </mxCell>
                <mxCell id="4" value="&lt;span&gt;&lt;font style=&quot;font-size: 16px;&quot;&gt;KVM&lt;br&gt;CN&lt;/font&gt;&lt;/span&gt;" style="rounded=0;whiteSpace=wrap;html=1;fillColor=none;strokeWidth=2;strokeColor=#B20000;fontColor=default;fontStyle=0" parent="1" vertex="1">
                    <mxGeometry x="84" y="177.09000000000003" width="40" height="40" as="geometry"/>
                </mxCell>
                <mxCell id="35" style="edgeStyle=none;html=1;exitX=1;exitY=0.5;exitDx=0;exitDy=0;fillColor=#dae8fc;gradientColor=#7ea6e0;strokeColor=#6c8ebf;fontStyle=0" parent="1" source="6" edge="1">
                    <mxGeometry relative="1" as="geometry">
                        <mxPoint x="164" y="197.10522842639602" as="targetPoint"/>
                    </mxGeometry>
                </mxCell>
                <mxCell id="6" value="&lt;span&gt;NG&lt;/span&gt;" style="whiteSpace=wrap;html=1;aspect=fixed;fillColor=none;gradientColor=#7ea6e0;strokeColor=#6c8ebf;strokeWidth=2;fontColor=default;fontStyle=0" parent="1" vertex="1">
                    <mxGeometry x="124" y="187.09000000000003" width="20" height="20" as="geometry"/>
                </mxCell>
                <mxCell id="37" style="edgeStyle=none;html=1;exitX=1;exitY=0.5;exitDx=0;exitDy=0;fillColor=#dae8fc;gradientColor=#7ea6e0;strokeColor=#6c8ebf;fontStyle=0" parent="1" source="8" edge="1">
                    <mxGeometry relative="1" as="geometry">
                        <mxPoint x="164" y="237.10522842639602" as="targetPoint"/>
                    </mxGeometry>
                </mxCell>
                <mxCell id="8" value="&lt;span&gt;NG&lt;/span&gt;" style="whiteSpace=wrap;html=1;aspect=fixed;fillColor=none;gradientColor=#7ea6e0;strokeColor=#6c8ebf;strokeWidth=2;fontColor=default;fontStyle=0" parent="1" vertex="1">
                    <mxGeometry x="124" y="227.09000000000003" width="20" height="20" as="geometry"/>
                </mxCell>
                <mxCell id="39" style="edgeStyle=none;html=1;fillColor=#dae8fc;gradientColor=#7ea6e0;strokeColor=#6c8ebf;fontStyle=0" parent="1" source="10" edge="1">
                    <mxGeometry relative="1" as="geometry">
                        <mxPoint x="164" y="277.09000000000003" as="targetPoint"/>
                    </mxGeometry>
                </mxCell>
                <mxCell id="10" value="&lt;span&gt;NG&lt;/span&gt;" style="whiteSpace=wrap;html=1;aspect=fixed;fillColor=none;gradientColor=#7ea6e0;strokeColor=#6c8ebf;strokeWidth=2;fontColor=default;fontStyle=0" parent="1" vertex="1">
                    <mxGeometry x="124" y="267.09000000000003" width="20" height="20" as="geometry"/>
                </mxCell>
                <mxCell id="13" value="&lt;span&gt;&lt;font style=&quot;font-size: 16px;&quot;&gt;GPU&lt;br&gt;CN&lt;/font&gt;&lt;/span&gt;" style="rounded=0;whiteSpace=wrap;html=1;fillColor=none;strokeWidth=2;strokeColor=#C73500;fontColor=default;fontStyle=0" parent="1" vertex="1">
                    <mxGeometry x="202.42000000000007" y="217.09000000000003" width="40" height="40" as="geometry"/>
                </mxCell>
                <mxCell id="14" value="&lt;span&gt;&lt;font style=&quot;font-size: 16px;&quot;&gt;GPU&lt;br&gt;CN&lt;/font&gt;&lt;/span&gt;" style="rounded=0;whiteSpace=wrap;html=1;fillColor=none;strokeWidth=2;strokeColor=#C73500;fontColor=default;fontStyle=0" parent="1" vertex="1">
                    <mxGeometry x="202.42000000000007" y="177.09000000000003" width="40" height="40" as="geometry"/>
                </mxCell>
                <mxCell id="15" value="&lt;span&gt;&lt;font style=&quot;font-size: 16px;&quot;&gt;GPU&lt;br&gt;CN&lt;/font&gt;&lt;/span&gt;" style="rounded=0;whiteSpace=wrap;html=1;fillColor=none;strokeWidth=2;strokeColor=#C73500;fontColor=default;fontStyle=0" parent="1" vertex="1">
                    <mxGeometry x="202.42000000000007" y="257.09000000000003" width="40" height="40" as="geometry"/>
                </mxCell>
                <mxCell id="36" style="edgeStyle=none;html=1;exitX=0;exitY=0.5;exitDx=0;exitDy=0;fillColor=#dae8fc;gradientColor=#7ea6e0;strokeColor=#6c8ebf;fontStyle=0" parent="1" source="16" edge="1">
                    <mxGeometry relative="1" as="geometry">
                        <mxPoint x="164" y="197.10522842639602" as="targetPoint"/>
                    </mxGeometry>
                </mxCell>
                <mxCell id="16" value="&lt;span&gt;NG&lt;/span&gt;" style="whiteSpace=wrap;html=1;aspect=fixed;fillColor=none;gradientColor=#7ea6e0;strokeColor=#6c8ebf;strokeWidth=2;fontColor=default;fontStyle=0" parent="1" vertex="1">
                    <mxGeometry x="182.42000000000007" y="187.09000000000003" width="20" height="20" as="geometry"/>
                </mxCell>
                <mxCell id="38" style="edgeStyle=none;html=1;fillColor=#dae8fc;gradientColor=#7ea6e0;strokeColor=#6c8ebf;fontStyle=0" parent="1" source="17" edge="1">
                    <mxGeometry relative="1" as="geometry">
                        <mxPoint x="164" y="237.09000000000015" as="targetPoint"/>
                    </mxGeometry>
                </mxCell>
                <mxCell id="17" value="&lt;span&gt;NG&lt;/span&gt;" style="whiteSpace=wrap;html=1;aspect=fixed;fillColor=none;gradientColor=#7ea6e0;strokeColor=#6c8ebf;strokeWidth=2;fontColor=default;fontStyle=0" parent="1" vertex="1">
                    <mxGeometry x="182.42000000000007" y="227.09000000000003" width="20" height="20" as="geometry"/>
                </mxCell>
                <mxCell id="40" style="edgeStyle=none;html=1;fillColor=#dae8fc;gradientColor=#7ea6e0;strokeColor=#6c8ebf;fontStyle=0" parent="1" source="18" edge="1">
                    <mxGeometry relative="1" as="geometry">
                        <mxPoint x="164" y="277.09000000000003" as="targetPoint"/>
                    </mxGeometry>
                </mxCell>
                <mxCell id="18" value="&lt;span&gt;NG&lt;/span&gt;" style="whiteSpace=wrap;html=1;aspect=fixed;fillColor=none;gradientColor=#7ea6e0;strokeColor=#6c8ebf;strokeWidth=2;fontColor=default;fontStyle=0" parent="1" vertex="1">
                    <mxGeometry x="182.42000000000007" y="267.09000000000003" width="20" height="20" as="geometry"/>
                </mxCell>
                <mxCell id="19" value="&lt;span&gt;&lt;font style=&quot;font-size: 16px;&quot;&gt;HT-2&lt;br&gt;CN&lt;/font&gt;&lt;/span&gt;" style="rounded=0;whiteSpace=wrap;html=1;fillColor=none;strokeWidth=2;strokeColor=#A50040;fontColor=default;fontStyle=0" parent="1" vertex="1">
                    <mxGeometry x="272.45000000000005" y="217.09000000000003" width="40" height="40" as="geometry"/>
                </mxCell>
                <mxCell id="20" value="&lt;span&gt;&lt;font style=&quot;font-size: 16px;&quot;&gt;HT-2&lt;br&gt;CN&lt;/font&gt;&lt;/span&gt;" style="rounded=0;whiteSpace=wrap;html=1;fillColor=none;strokeWidth=2;strokeColor=#A50040;fontColor=default;fontStyle=0" parent="1" vertex="1">
                    <mxGeometry x="272.45000000000005" y="177.09000000000003" width="40" height="40" as="geometry"/>
                </mxCell>
                <mxCell id="21" value="&lt;span&gt;&lt;font style=&quot;font-size: 16px;&quot;&gt;HT-2&lt;br&gt;CN&lt;/font&gt;&lt;/span&gt;" style="rounded=0;whiteSpace=wrap;html=1;fillColor=none;strokeWidth=2;strokeColor=#A50040;fontColor=default;fontStyle=0" parent="1" vertex="1">
                    <mxGeometry x="272.45000000000005" y="257.09000000000003" width="40" height="40" as="geometry"/>
                </mxCell>
                <mxCell id="42" style="edgeStyle=none;html=1;fillColor=#dae8fc;gradientColor=#7ea6e0;strokeColor=#6c8ebf;fontStyle=0" parent="1" source="22" edge="1">
                    <mxGeometry relative="1" as="geometry">
                        <mxPoint x="354" y="197.09000000000003" as="targetPoint"/>
                    </mxGeometry>
                </mxCell>
                <mxCell id="22" value="&lt;span&gt;NG&lt;/span&gt;" style="whiteSpace=wrap;html=1;aspect=fixed;fillColor=none;gradientColor=#7ea6e0;strokeColor=#6c8ebf;strokeWidth=2;fontColor=default;fontStyle=0" parent="1" vertex="1">
                    <mxGeometry x="312.45000000000005" y="187.09000000000003" width="20" height="20" as="geometry"/>
                </mxCell>
                <mxCell id="44" style="edgeStyle=none;html=1;exitX=1;exitY=0.5;exitDx=0;exitDy=0;fillColor=#dae8fc;gradientColor=#7ea6e0;strokeColor=#6c8ebf;fontStyle=0" parent="1" source="23" edge="1">
                    <mxGeometry relative="1" as="geometry">
                        <mxPoint x="354" y="237.10694915254237" as="targetPoint"/>
                    </mxGeometry>
                </mxCell>
                <mxCell id="23" value="&lt;span&gt;NG&lt;/span&gt;" style="whiteSpace=wrap;html=1;aspect=fixed;fillColor=none;gradientColor=#7ea6e0;strokeColor=#6c8ebf;strokeWidth=2;fontColor=default;fontStyle=0" parent="1" vertex="1">
                    <mxGeometry x="312.45000000000005" y="227.09000000000003" width="20" height="20" as="geometry"/>
                </mxCell>
                <mxCell id="46" style="edgeStyle=none;html=1;fillColor=#dae8fc;gradientColor=#7ea6e0;strokeColor=#6c8ebf;fontStyle=0" parent="1" source="24" edge="1">
                    <mxGeometry relative="1" as="geometry">
                        <mxPoint x="354" y="277.09000000000003" as="targetPoint"/>
                    </mxGeometry>
                </mxCell>
                <mxCell id="24" value="&lt;span&gt;NG&lt;/span&gt;" style="whiteSpace=wrap;html=1;aspect=fixed;fillColor=none;gradientColor=#7ea6e0;strokeColor=#6c8ebf;strokeWidth=2;fontColor=default;fontStyle=0" parent="1" vertex="1">
                    <mxGeometry x="312.45000000000005" y="267.09000000000003" width="20" height="20" as="geometry"/>
                </mxCell>
                <mxCell id="25" value="&lt;span&gt;&lt;font style=&quot;font-size: 16px;&quot;&gt;SN&lt;/font&gt;&lt;/span&gt;" style="rounded=0;whiteSpace=wrap;html=1;fillColor=none;strokeWidth=2;strokeColor=#BD7000;fontColor=default;fontStyle=0" parent="1" vertex="1">
                    <mxGeometry x="392.45000000000005" y="177.09000000000003" width="40" height="40" as="geometry"/>
                </mxCell>
                <mxCell id="26" value="&lt;span&gt;&lt;font style=&quot;font-size: 16px;&quot;&gt;SN&lt;/font&gt;&lt;/span&gt;" style="rounded=0;whiteSpace=wrap;html=1;fillColor=none;strokeWidth=2;strokeColor=#BD7000;fontColor=default;fontStyle=0" parent="1" vertex="1">
                    <mxGeometry x="392.45000000000005" y="217.09000000000003" width="40" height="40" as="geometry"/>
                </mxCell>
                <mxCell id="27" value="&lt;span&gt;&lt;font style=&quot;font-size: 16px;&quot;&gt;SN&lt;/font&gt;&lt;/span&gt;" style="rounded=0;whiteSpace=wrap;html=1;fillColor=none;strokeWidth=2;strokeColor=#BD7000;fontColor=default;fontStyle=0" parent="1" vertex="1">
                    <mxGeometry x="392.45000000000005" y="257.09000000000003" width="40" height="40" as="geometry"/>
                </mxCell>
                <mxCell id="43" style="edgeStyle=none;html=1;fillColor=#dae8fc;gradientColor=#7ea6e0;strokeColor=#6c8ebf;fontStyle=0" parent="1" source="28" edge="1">
                    <mxGeometry relative="1" as="geometry">
                        <mxPoint x="354" y="197.09000000000003" as="targetPoint"/>
                    </mxGeometry>
                </mxCell>
                <mxCell id="28" value="&lt;span&gt;NG&lt;/span&gt;" style="whiteSpace=wrap;html=1;aspect=fixed;fillColor=none;gradientColor=#7ea6e0;strokeColor=#6c8ebf;strokeWidth=2;fontColor=default;fontStyle=0" parent="1" vertex="1">
                    <mxGeometry x="372.45000000000005" y="187.09000000000003" width="20" height="20" as="geometry"/>
                </mxCell>
                <mxCell id="45" style="edgeStyle=none;html=1;fillColor=#dae8fc;gradientColor=#7ea6e0;strokeColor=#6c8ebf;fontStyle=0" parent="1" source="29" edge="1">
                    <mxGeometry relative="1" as="geometry">
                        <mxPoint x="354" y="237.09000000000003" as="targetPoint"/>
                    </mxGeometry>
                </mxCell>
                <mxCell id="29" value="&lt;span&gt;NG&lt;/span&gt;" style="whiteSpace=wrap;html=1;aspect=fixed;fillColor=none;gradientColor=#7ea6e0;strokeColor=#6c8ebf;strokeWidth=2;fontColor=default;fontStyle=0" parent="1" vertex="1">
                    <mxGeometry x="372.45000000000005" y="227.09000000000003" width="20" height="20" as="geometry"/>
                </mxCell>
                <mxCell id="47" style="edgeStyle=none;html=1;fillColor=#dae8fc;gradientColor=#7ea6e0;strokeColor=#6c8ebf;fontStyle=0" parent="1" source="30" edge="1">
                    <mxGeometry relative="1" as="geometry">
                        <mxPoint x="354" y="277.09000000000003" as="targetPoint"/>
                    </mxGeometry>
                </mxCell>
                <mxCell id="30" value="&lt;span&gt;NG&lt;/span&gt;" style="whiteSpace=wrap;html=1;aspect=fixed;fillColor=none;gradientColor=#7ea6e0;strokeColor=#6c8ebf;strokeWidth=2;fontColor=default;fontStyle=0" parent="1" vertex="1">
                    <mxGeometry x="372.45000000000005" y="267.09000000000003" width="20" height="20" as="geometry"/>
                </mxCell>
                <mxCell id="41" style="edgeStyle=none;html=1;fillColor=#dae8fc;gradientColor=#7ea6e0;strokeColor=#6c8ebf;" parent="1" edge="1">
                    <mxGeometry relative="1" as="geometry">
                        <mxPoint x="354" y="717" as="targetPoint"/>
                        <mxPoint x="354" y="197.09000000000003" as="sourcePoint"/>
                    </mxGeometry>
                </mxCell>
                <mxCell id="48" value="&lt;font size=&quot;1&quot; style=&quot;&quot;&gt;&lt;b style=&quot;font-size: 14px;&quot;&gt;KVM &lt;br&gt;compute-type&lt;br&gt;&lt;/b&gt;&lt;/font&gt;" style="text;html=1;align=center;verticalAlign=middle;resizable=0;points=[];autosize=1;strokeColor=none;fillColor=none;fontSize=16;fontColor=default;" parent="1" vertex="1">
                    <mxGeometry x="46.33999999999989" y="106.44000000000003" width="120" height="50" as="geometry"/>
                </mxCell>
                <mxCell id="49" value="&lt;font size=&quot;1&quot; style=&quot;&quot;&gt;&lt;b style=&quot;font-size: 14px;&quot;&gt;GPU&lt;br&gt;compute-type&lt;br&gt;&lt;/b&gt;&lt;/font&gt;" style="text;html=1;align=center;verticalAlign=middle;resizable=0;points=[];autosize=1;strokeColor=none;fillColor=none;fontSize=16;fontColor=default;" parent="1" vertex="1">
                    <mxGeometry x="152.4499999999997" y="107.09000000000012" width="120" height="50" as="geometry"/>
                </mxCell>
                <mxCell id="63" style="edgeStyle=none;html=1;fontSize=14;dashed=1;" parent="1" source="50" edge="1">
                    <mxGeometry relative="1" as="geometry">
                        <mxPoint x="104" y="307.09000000000003" as="targetPoint"/>
                    </mxGeometry>
                </mxCell>
                <mxCell id="50" value="&lt;span&gt;&lt;font style=&quot;font-size: 16px;&quot;&gt;KVM&lt;br&gt;CN&lt;/font&gt;&lt;/span&gt;" style="rounded=0;whiteSpace=wrap;html=1;fillColor=none;strokeWidth=2;strokeColor=#B20000;fontColor=default;fontStyle=0" parent="1" vertex="1">
                    <mxGeometry x="83.99999999999989" y="337.09000000000003" width="40" height="40" as="geometry"/>
                </mxCell>
                <mxCell id="51" style="edgeStyle=none;html=1;strokeWidth=1;fontSize=50;startArrow=none;startFill=0;endArrow=classic;endFill=1;fillColor=#dae8fc;gradientColor=#7ea6e0;strokeColor=#6c8ebf;fontColor=default;fontStyle=0" parent="1" source="52" edge="1">
                    <mxGeometry relative="1" as="geometry">
                        <mxPoint x="164" y="357.09000000000003" as="targetPoint"/>
                    </mxGeometry>
                </mxCell>
                <mxCell id="52" value="&lt;span&gt;NG&lt;/span&gt;" style="whiteSpace=wrap;html=1;aspect=fixed;fillColor=none;gradientColor=#7ea6e0;strokeColor=#6c8ebf;strokeWidth=2;fontColor=default;fontStyle=0" parent="1" vertex="1">
                    <mxGeometry x="123.99999999999989" y="347.09000000000003" width="20" height="20" as="geometry"/>
                </mxCell>
                <mxCell id="64" style="edgeStyle=none;html=1;entryX=0.607;entryY=1;entryDx=0;entryDy=0;dashed=1;fontSize=14;entryPerimeter=0;" parent="1" source="53" target="31" edge="1">
                    <mxGeometry relative="1" as="geometry"/>
                </mxCell>
                <mxCell id="53" value="&lt;span&gt;&lt;font style=&quot;font-size: 16px;&quot;&gt;GPU&lt;br&gt;CN&lt;/font&gt;&lt;/span&gt;" style="rounded=0;whiteSpace=wrap;html=1;fillColor=none;strokeWidth=2;strokeColor=#C73500;fontColor=default;fontStyle=0" parent="1" vertex="1">
                    <mxGeometry x="202.42000000000007" y="337.09000000000003" width="40" height="40" as="geometry"/>
                </mxCell>
                <mxCell id="54" style="edgeStyle=none;html=1;exitX=0;exitY=0.5;exitDx=0;exitDy=0;strokeWidth=1;fontSize=50;startArrow=none;startFill=0;endArrow=classic;endFill=1;fillColor=#dae8fc;gradientColor=#7ea6e0;strokeColor=#6c8ebf;fontColor=default;fontStyle=0" parent="1" source="55" edge="1">
                    <mxGeometry relative="1" as="geometry">
                        <mxPoint x="164" y="357.09000000000003" as="targetPoint"/>
                        <Array as="points">
                            <mxPoint x="174" y="357.09000000000003"/>
                        </Array>
                    </mxGeometry>
                </mxCell>
                <mxCell id="55" value="&lt;span&gt;NG&lt;/span&gt;" style="whiteSpace=wrap;html=1;aspect=fixed;fillColor=none;gradientColor=#7ea6e0;strokeColor=#6c8ebf;strokeWidth=2;fontColor=default;fontStyle=0" parent="1" vertex="1">
                    <mxGeometry x="182.42000000000007" y="347.09000000000003" width="20" height="20" as="geometry"/>
                </mxCell>
                <mxCell id="66" style="edgeStyle=none;html=1;entryX=0.619;entryY=0.998;entryDx=0;entryDy=0;dashed=1;fontSize=14;entryPerimeter=0;" parent="1" source="56" target="33" edge="1">
                    <mxGeometry relative="1" as="geometry"/>
                </mxCell>
                <mxCell id="56" value="&lt;span&gt;&lt;font style=&quot;font-size: 16px;&quot;&gt;SN&lt;/font&gt;&lt;/span&gt;" style="rounded=0;whiteSpace=wrap;html=1;fillColor=none;strokeWidth=2;strokeColor=#BD7000;fontColor=default;fontStyle=0" parent="1" vertex="1">
                    <mxGeometry x="392.4200000000001" y="337.09000000000003" width="40" height="40" as="geometry"/>
                </mxCell>
                <mxCell id="62" style="edgeStyle=none;html=1;exitX=0;exitY=0.5;exitDx=0;exitDy=0;fontSize=14;fillColor=#dae8fc;gradientColor=#7ea6e0;strokeColor=#6c8ebf;fontStyle=0" parent="1" source="58" edge="1">
                    <mxGeometry relative="1" as="geometry">
                        <mxPoint x="354" y="357.1026582278481" as="targetPoint"/>
                    </mxGeometry>
                </mxCell>
                <mxCell id="58" value="&lt;span&gt;NG&lt;/span&gt;" style="whiteSpace=wrap;html=1;aspect=fixed;fillColor=none;gradientColor=#7ea6e0;strokeColor=#6c8ebf;strokeWidth=2;fontColor=default;fontStyle=0" parent="1" vertex="1">
                    <mxGeometry x="372.4200000000001" y="347.09000000000003" width="20" height="20" as="geometry"/>
                </mxCell>
                <mxCell id="65" style="edgeStyle=none;html=1;entryX=0.365;entryY=1.011;entryDx=0;entryDy=0;dashed=1;fontSize=14;entryPerimeter=0;" parent="1" source="59" target="32" edge="1">
                    <mxGeometry relative="1" as="geometry"/>
                </mxCell>
                <mxCell id="59" value="&lt;span&gt;&lt;font style=&quot;font-size: 16px;&quot;&gt;HT-2&lt;br&gt;CN&lt;/font&gt;&lt;/span&gt;" style="rounded=0;whiteSpace=wrap;html=1;fillColor=none;strokeWidth=2;strokeColor=#A50040;fontColor=default;fontStyle=0" parent="1" vertex="1">
                    <mxGeometry x="272.45000000000005" y="337.09000000000003" width="40" height="40" as="geometry"/>
                </mxCell>
                <mxCell id="60" style="edgeStyle=none;html=1;fillColor=#dae8fc;gradientColor=#7ea6e0;strokeColor=#6c8ebf;fontStyle=0" parent="1" source="61" edge="1">
                    <mxGeometry relative="1" as="geometry">
                        <mxPoint x="354" y="357.09000000000003" as="targetPoint"/>
                    </mxGeometry>
                </mxCell>
                <mxCell id="61" value="&lt;span&gt;NG&lt;/span&gt;" style="whiteSpace=wrap;html=1;aspect=fixed;fillColor=none;gradientColor=#7ea6e0;strokeColor=#6c8ebf;strokeWidth=2;fontColor=default;fontStyle=0" parent="1" vertex="1">
                    <mxGeometry x="312.45000000000005" y="347.09000000000003" width="20" height="20" as="geometry"/>
                </mxCell>
                <mxCell id="71" style="edgeStyle=none;html=1;exitX=0;exitY=0;exitDx=0;exitDy=0;entryX=1;entryY=1;entryDx=0;entryDy=0;fontSize=14;fillColor=#a20025;strokeColor=#6F0000;fontStyle=0;strokeWidth=2;" parent="1" source="68" target="50" edge="1">
                    <mxGeometry relative="1" as="geometry"/>
                </mxCell>
                <mxCell id="72" style="edgeStyle=none;html=1;exitX=1;exitY=0;exitDx=0;exitDy=0;entryX=0;entryY=1;entryDx=0;entryDy=0;fontSize=14;fillColor=#a20025;strokeColor=#6F0000;fontStyle=0;strokeWidth=2;" parent="1" source="68" target="56" edge="1">
                    <mxGeometry relative="1" as="geometry"/>
                </mxCell>
                <mxCell id="73" style="edgeStyle=none;html=1;exitX=0.25;exitY=0;exitDx=0;exitDy=0;entryX=0.5;entryY=1;entryDx=0;entryDy=0;fontSize=14;fillColor=#a20025;strokeColor=#6F0000;fontStyle=0;strokeWidth=2;" parent="1" source="68" target="53" edge="1">
                    <mxGeometry relative="1" as="geometry"/>
                </mxCell>
                <mxCell id="74" style="edgeStyle=none;html=1;exitX=0.75;exitY=0;exitDx=0;exitDy=0;entryX=0.5;entryY=1;entryDx=0;entryDy=0;fontSize=14;fillColor=#a20025;strokeColor=#6F0000;fontStyle=0;strokeWidth=2;" parent="1" source="68" target="59" edge="1">
                    <mxGeometry relative="1" as="geometry"/>
                </mxCell>
                <mxCell id="444" style="edgeStyle=none;html=1;exitX=0;exitY=1;exitDx=0;exitDy=0;entryX=0.246;entryY=-0.035;entryDx=0;entryDy=0;fontSize=12;startArrow=none;startFill=0;endArrow=classic;endFill=1;fillColor=#a20025;strokeColor=#6F0000;strokeWidth=2;entryPerimeter=0;" parent="1" source="68" target="437" edge="1">
                    <mxGeometry relative="1" as="geometry"/>
                </mxCell>
                <mxCell id="445" style="edgeStyle=none;html=1;exitX=1;exitY=1;exitDx=0;exitDy=0;fontSize=12;startArrow=none;startFill=0;endArrow=classic;endFill=1;fillColor=#a20025;strokeColor=#6F0000;strokeWidth=2;entryX=0.772;entryY=-0.039;entryDx=0;entryDy=0;entryPerimeter=0;" parent="1" source="68" target="472" edge="1">
                    <mxGeometry relative="1" as="geometry">
                        <mxPoint x="324" y="520" as="targetPoint"/>
                    </mxGeometry>
                </mxCell>
                <mxCell id="475" style="edgeStyle=none;html=1;entryX=0.494;entryY=-0.02;entryDx=0;entryDy=0;entryPerimeter=0;fillColor=#a20025;strokeColor=#6F0000;strokeWidth=2;" parent="1" target="471" edge="1">
                    <mxGeometry relative="1" as="geometry">
                        <mxPoint x="254" y="470" as="sourcePoint"/>
                    </mxGeometry>
                </mxCell>
                <mxCell id="68" value="&lt;span style=&quot;font-size: 16px;&quot;&gt;OpSt&lt;br&gt;ConN&lt;br&gt;&lt;/span&gt;" style="rounded=0;whiteSpace=wrap;html=1;fillColor=none;strokeWidth=2;strokeColor=#6F0000;fontColor=default;fontStyle=0" parent="1" vertex="1">
                    <mxGeometry x="234" y="430" width="40" height="40" as="geometry"/>
                </mxCell>
                <mxCell id="300" style="edgeStyle=none;html=1;strokeColor=#6c8ebf;strokeWidth=1;fontSize=12;startArrow=none;startFill=0;endArrow=classic;endFill=1;fillColor=#dae8fc;gradientColor=#7ea6e0;fontStyle=0" parent="1" source="70" edge="1">
                    <mxGeometry relative="1" as="geometry">
                        <mxPoint x="164" y="447.96000000000004" as="targetPoint"/>
                    </mxGeometry>
                </mxCell>
                <mxCell id="70" value="&lt;span&gt;NG&lt;/span&gt;" style="whiteSpace=wrap;html=1;aspect=fixed;fillColor=none;gradientColor=#7ea6e0;strokeColor=#6c8ebf;strokeWidth=2;fontColor=default;fontStyle=0" parent="1" vertex="1">
                    <mxGeometry x="214.00000000000006" y="437.87000000000006" width="20" height="20" as="geometry"/>
                </mxCell>
                <mxCell id="81" value="&lt;font size=&quot;1&quot; style=&quot;&quot;&gt;&lt;b style=&quot;font-size: 14px;&quot;&gt;Nested&lt;br&gt;compute-type&lt;br&gt;&lt;/b&gt;&lt;/font&gt;" style="text;html=1;align=center;verticalAlign=middle;resizable=0;points=[];autosize=1;strokeColor=none;fillColor=none;fontSize=16;fontColor=default;" parent="1" vertex="1">
                    <mxGeometry x="251.64999999999978" y="107.09000000000003" width="120" height="50" as="geometry"/>
                </mxCell>
                <mxCell id="82" value="&lt;font size=&quot;1&quot; style=&quot;&quot;&gt;&lt;b style=&quot;font-size: 14px;&quot;&gt;Storage&lt;br&gt;&lt;/b&gt;&lt;/font&gt;" style="text;html=1;align=center;verticalAlign=middle;resizable=0;points=[];autosize=1;strokeColor=none;fillColor=none;fontSize=16;fontColor=default;" parent="1" vertex="1">
                    <mxGeometry x="371.64999999999986" y="117.09000000000003" width="80" height="30" as="geometry"/>
                </mxCell>
                <mxCell id="194" value="&lt;font size=&quot;1&quot; style=&quot;&quot;&gt;&lt;span style=&quot;font-size: 12px;&quot;&gt;&lt;b&gt;OpenStack Environment (Compute)&lt;/b&gt;&lt;br&gt;&lt;/span&gt;&lt;/font&gt;" style="text;html=1;align=center;verticalAlign=middle;resizable=0;points=[];autosize=1;strokeColor=none;fillColor=none;fontSize=16;fontColor=default;" parent="1" vertex="1">
                    <mxGeometry x="518.7199999999999" y="106.44000000000003" width="230" height="30" as="geometry"/>
                </mxCell>
                <mxCell id="193" value="" style="rounded=0;whiteSpace=wrap;html=1;fillColor=none;strokeWidth=3;strokeColor=#6F0000;fontColor=default;" parent="1" vertex="1">
                    <mxGeometry x="511" y="131.87" width="243" height="258.13" as="geometry"/>
                </mxCell>
                <mxCell id="493" style="edgeStyle=none;html=1;exitX=1;exitY=0.5;exitDx=0;exitDy=0;entryX=0;entryY=0.5;entryDx=0;entryDy=0;strokeColor=default;strokeWidth=1;fontSize=14;fontColor=default;" parent="1" source="195" target="412" edge="1">
                    <mxGeometry relative="1" as="geometry"/>
                </mxCell>
                <mxCell id="494" style="edgeStyle=none;html=1;exitX=1;exitY=0.5;exitDx=0;exitDy=0;entryX=0;entryY=0.5;entryDx=0;entryDy=0;strokeColor=default;strokeWidth=1;fontSize=14;fontColor=default;" parent="1" source="195" target="411" edge="1">
                    <mxGeometry relative="1" as="geometry">
                        <Array as="points">
                            <mxPoint x="637.5" y="330.78"/>
                        </Array>
                    </mxGeometry>
                </mxCell>
                <mxCell id="495" style="edgeStyle=none;html=1;exitX=1;exitY=0.5;exitDx=0;exitDy=0;entryX=0;entryY=0.5;entryDx=0;entryDy=0;strokeColor=default;strokeWidth=1;fontSize=14;fontColor=default;" parent="1" source="195" target="413" edge="1">
                    <mxGeometry relative="1" as="geometry">
                        <Array as="points">
                            <mxPoint x="637.5" y="370.78"/>
                        </Array>
                    </mxGeometry>
                </mxCell>
                <mxCell id="496" style="edgeStyle=none;html=1;exitX=0.5;exitY=0;exitDx=0;exitDy=0;dashed=1;strokeColor=default;strokeWidth=1;fontSize=14;fontColor=default;entryX=0.5;entryY=1;entryDx=0;entryDy=0;" parent="1" source="195" target="201" edge="1">
                    <mxGeometry relative="1" as="geometry">
                        <mxPoint x="569.9230769230769" y="290.78" as="targetPoint"/>
                    </mxGeometry>
                </mxCell>
                <mxCell id="195" value="&lt;font style=&quot;font-size: 12px;&quot;&gt;Compute type&lt;/font&gt;" style="rounded=0;whiteSpace=wrap;html=1;strokeWidth=2;fontSize=14;fillColor=none;fontColor=default;" parent="1" vertex="1">
                    <mxGeometry x="517.5" y="340.78" width="112.34" height="20" as="geometry"/>
                </mxCell>
                <mxCell id="515" style="edgeStyle=none;html=1;exitX=1.001;exitY=0.384;exitDx=0;exitDy=0;entryX=0.117;entryY=0.934;entryDx=0;entryDy=0;entryPerimeter=0;strokeColor=default;strokeWidth=1;fontSize=12;fontColor=default;exitPerimeter=0;" parent="1" source="196" target="218" edge="1">
                    <mxGeometry relative="1" as="geometry">
                        <Array as="points">
                            <mxPoint x="664" y="170"/>
                        </Array>
                    </mxGeometry>
                </mxCell>
                <mxCell id="196" value="&lt;font style=&quot;&quot;&gt;OpSt Compute Node&lt;br&gt;&lt;/font&gt;" style="rounded=0;whiteSpace=wrap;html=1;fillColor=none;strokeWidth=2;strokeColor=#6F0000;fontColor=default;" parent="1" vertex="1">
                    <mxGeometry x="524" y="162.55" width="120" height="20" as="geometry"/>
                </mxCell>
                <mxCell id="514" style="edgeStyle=none;html=1;entryX=0.779;entryY=-0.003;entryDx=0;entryDy=0;entryPerimeter=0;strokeColor=default;strokeWidth=1;fontSize=12;fontColor=default;exitX=1;exitY=0.373;exitDx=0;exitDy=0;exitPerimeter=0;" parent="1" source="198" target="217" edge="1">
                    <mxGeometry relative="1" as="geometry">
                        <Array as="points">
                            <mxPoint x="704" y="150"/>
                        </Array>
                    </mxGeometry>
                </mxCell>
                <mxCell id="198" value="&lt;font style=&quot;&quot;&gt;OpSt Compute Node&lt;br&gt;&lt;/font&gt;" style="rounded=0;whiteSpace=wrap;html=1;fillColor=none;strokeWidth=2;strokeColor=#6F0000;fontColor=default;" parent="1" vertex="1">
                    <mxGeometry x="524" y="142.55" width="120" height="20" as="geometry"/>
                </mxCell>
                <mxCell id="200" value="&lt;font style=&quot;&quot;&gt;...&lt;br&gt;&lt;/font&gt;" style="rounded=0;whiteSpace=wrap;html=1;fillColor=none;strokeWidth=2;strokeColor=#6F0000;fontColor=default;" parent="1" vertex="1">
                    <mxGeometry x="524" y="182.05" width="120" height="11.95" as="geometry"/>
                </mxCell>
                <mxCell id="490" style="edgeStyle=none;html=1;exitX=1;exitY=0.5;exitDx=0;exitDy=0;entryX=0;entryY=0.5;entryDx=0;entryDy=0;strokeColor=default;strokeWidth=1;fontSize=14;fontColor=default;" parent="1" source="201" target="209" edge="1">
                    <mxGeometry relative="1" as="geometry"/>
                </mxCell>
                <mxCell id="491" style="edgeStyle=none;html=1;exitX=1;exitY=0.5;exitDx=0;exitDy=0;entryX=0;entryY=0.5;entryDx=0;entryDy=0;strokeColor=default;strokeWidth=1;fontSize=14;fontColor=default;" parent="1" source="201" target="208" edge="1">
                    <mxGeometry relative="1" as="geometry">
                        <Array as="points">
                            <mxPoint x="637.5" y="260.78"/>
                        </Array>
                    </mxGeometry>
                </mxCell>
                <mxCell id="492" style="edgeStyle=none;html=1;exitX=1;exitY=0.5;exitDx=0;exitDy=0;entryX=0;entryY=0.5;entryDx=0;entryDy=0;strokeColor=default;strokeWidth=1;fontSize=14;fontColor=default;" parent="1" source="201" target="485" edge="1">
                    <mxGeometry relative="1" as="geometry">
                        <Array as="points">
                            <mxPoint x="637.5" y="300.78"/>
                        </Array>
                    </mxGeometry>
                </mxCell>
                <mxCell id="497" style="edgeStyle=none;html=1;exitX=0.5;exitY=0;exitDx=0;exitDy=0;entryX=0.5;entryY=1;entryDx=0;entryDy=0;dashed=1;strokeColor=default;strokeWidth=1;fontSize=14;fontColor=default;" parent="1" source="201" target="409" edge="1">
                    <mxGeometry relative="1" as="geometry"/>
                </mxCell>
                <mxCell id="201" value="&lt;font style=&quot;font-size: 12px;&quot;&gt;Ressource classes&lt;/font&gt;" style="rounded=0;whiteSpace=wrap;html=1;strokeWidth=2;fontSize=14;fillColor=none;fontColor=default;" parent="1" vertex="1">
                    <mxGeometry x="517.5" y="271.10999999999996" width="112.34" height="19.66" as="geometry"/>
                </mxCell>
                <mxCell id="208" value="&lt;font style=&quot;font-size: 14px;&quot;&gt;r-class-0&lt;/font&gt;" style="rounded=0;whiteSpace=wrap;html=1;strokeWidth=1;fontSize=14;fillColor=none;fontColor=default;align=center;" parent="1" vertex="1">
                    <mxGeometry x="657.5" y="251.11" width="60" height="20" as="geometry"/>
                </mxCell>
                <mxCell id="505" style="edgeStyle=none;html=1;exitX=1;exitY=0.25;exitDx=0;exitDy=0;entryX=1.017;entryY=0.44;entryDx=0;entryDy=0;strokeColor=default;strokeWidth=1;fontSize=12;fontColor=default;entryPerimeter=0;" parent="1" source="208" target="218" edge="1">
                    <mxGeometry relative="1" as="geometry">
                        <Array as="points">
                            <mxPoint x="734" y="250"/>
                            <mxPoint x="734" y="220"/>
                        </Array>
                    </mxGeometry>
                </mxCell>
                <mxCell id="509" style="edgeStyle=none;html=1;exitX=1;exitY=0.25;exitDx=0;exitDy=0;entryX=1.016;entryY=0.428;entryDx=0;entryDy=0;strokeColor=default;strokeWidth=1;fontSize=12;fontColor=default;entryPerimeter=0;" parent="1" source="209" target="217" edge="1">
                    <mxGeometry relative="1" as="geometry">
                        <Array as="points">
                            <mxPoint x="744" y="260"/>
                            <mxPoint x="744" y="200"/>
                        </Array>
                    </mxGeometry>
                </mxCell>
                <mxCell id="209" value="r-class-1" style="rounded=0;whiteSpace=wrap;html=1;strokeWidth=1;fontSize=14;fillColor=none;fontColor=default;align=center;" parent="1" vertex="1">
                    <mxGeometry x="657.5" y="271.10999999999996" width="60" height="20" as="geometry"/>
                </mxCell>
                <mxCell id="219" value="h-agg-..." style="rounded=0;whiteSpace=wrap;html=1;strokeWidth=2;fontSize=14;fillColor=none;fontColor=default;align=center;strokeColor=#314354;" parent="1" vertex="1">
                    <mxGeometry x="657.5" y="220.78" width="60" height="20" as="geometry"/>
                </mxCell>
                <mxCell id="242" value="" style="rounded=0;whiteSpace=wrap;html=1;fillColor=none;strokeWidth=3;strokeColor=#6F0000;fontColor=default;" parent="1" vertex="1">
                    <mxGeometry x="511" y="410" width="243" height="230" as="geometry"/>
                </mxCell>
                <mxCell id="535" style="edgeStyle=none;html=1;exitX=1;exitY=0.25;exitDx=0;exitDy=0;fontSize=11;entryX=0.78;entryY=-0.01;entryDx=0;entryDy=0;entryPerimeter=0;" parent="1" source="251" target="265" edge="1">
                    <mxGeometry relative="1" as="geometry">
                        <mxPoint x="704" y="430" as="targetPoint"/>
                        <Array as="points">
                            <mxPoint x="704" y="420"/>
                        </Array>
                    </mxGeometry>
                </mxCell>
                <mxCell id="251" value="&lt;font style=&quot;font-size: 12px;&quot;&gt;OpSt Storage Node&lt;/font&gt;" style="rounded=0;whiteSpace=wrap;html=1;fillColor=none;strokeWidth=2;strokeColor=#BD7000;fontColor=default;" parent="1" vertex="1">
                    <mxGeometry x="517.4999999999999" y="415.00000000000006" width="110" height="20" as="geometry"/>
                </mxCell>
                <mxCell id="252" value="..." style="rounded=0;whiteSpace=wrap;html=1;fillColor=none;strokeWidth=2;strokeColor=#BD7000;fontColor=default;" parent="1" vertex="1">
                    <mxGeometry x="517.4999999999999" y="435" width="110" height="15" as="geometry"/>
                </mxCell>
                <mxCell id="255" style="edgeStyle=none;html=1;exitX=0.5;exitY=0;exitDx=0;exitDy=0;entryX=0.5;entryY=1;entryDx=0;entryDy=0;strokeWidth=2;fontSize=14;startArrow=none;startFill=0;endArrow=classic;endFill=1;dashed=1;" parent="1" source="256" target="261" edge="1">
                    <mxGeometry relative="1" as="geometry"/>
                </mxCell>
                <mxCell id="522" style="edgeStyle=none;html=1;exitX=1;exitY=0.5;exitDx=0;exitDy=0;entryX=0;entryY=0.5;entryDx=0;entryDy=0;fontSize=12;" parent="1" source="256" target="425" edge="1">
                    <mxGeometry relative="1" as="geometry"/>
                </mxCell>
                <mxCell id="523" style="edgeStyle=none;html=1;exitX=1;exitY=0.5;exitDx=0;exitDy=0;entryX=0;entryY=0.5;entryDx=0;entryDy=0;fontSize=12;" parent="1" source="256" target="424" edge="1">
                    <mxGeometry relative="1" as="geometry">
                        <Array as="points">
                            <mxPoint x="636.6800000000001" y="585.0000000000001"/>
                        </Array>
                    </mxGeometry>
                </mxCell>
                <mxCell id="524" style="edgeStyle=none;html=1;exitX=1;exitY=0.5;exitDx=0;exitDy=0;entryX=0;entryY=0.5;entryDx=0;entryDy=0;fontSize=12;" parent="1" source="256" target="426" edge="1">
                    <mxGeometry relative="1" as="geometry">
                        <Array as="points">
                            <mxPoint x="636.6800000000001" y="625.0000000000001"/>
                        </Array>
                    </mxGeometry>
                </mxCell>
                <mxCell id="256" value="&lt;font style=&quot;font-size: 11px;&quot;&gt;Storage cluster&lt;/font&gt;" style="rounded=0;whiteSpace=wrap;html=1;strokeWidth=2;fontSize=14;fillColor=none;fontColor=default;" parent="1" vertex="1">
                    <mxGeometry x="517.5" y="595" width="110" height="20" as="geometry"/>
                </mxCell>
                <mxCell id="260" style="edgeStyle=none;html=1;exitX=0.5;exitY=0;exitDx=0;exitDy=0;strokeWidth=2;fontSize=14;startArrow=none;startFill=0;endArrow=classic;endFill=1;entryX=0.5;entryY=1;entryDx=0;entryDy=0;dashed=1;" parent="1" source="261" target="263" edge="1">
                    <mxGeometry relative="1" as="geometry">
                        <mxPoint x="515.9044444444442" y="564.2200000000001" as="targetPoint"/>
                    </mxGeometry>
                </mxCell>
                <mxCell id="519" style="edgeStyle=none;html=1;exitX=1;exitY=0.5;exitDx=0;exitDy=0;entryX=0;entryY=0.5;entryDx=0;entryDy=0;fontSize=12;" parent="1" source="261" target="273" edge="1">
                    <mxGeometry relative="1" as="geometry"/>
                </mxCell>
                <mxCell id="520" style="edgeStyle=none;html=1;exitX=1;exitY=0.5;exitDx=0;exitDy=0;entryX=0;entryY=0.5;entryDx=0;entryDy=0;fontSize=12;" parent="1" source="261" target="271" edge="1">
                    <mxGeometry relative="1" as="geometry">
                        <Array as="points">
                            <mxPoint x="636.6800000000001" y="515.0000000000002"/>
                        </Array>
                    </mxGeometry>
                </mxCell>
                <mxCell id="521" style="edgeStyle=none;html=1;exitX=1;exitY=0.5;exitDx=0;exitDy=0;entryX=0;entryY=0.5;entryDx=0;entryDy=0;fontSize=12;" parent="1" source="261" target="275" edge="1">
                    <mxGeometry relative="1" as="geometry">
                        <Array as="points">
                            <mxPoint x="636.6800000000001" y="555.0000000000001"/>
                        </Array>
                    </mxGeometry>
                </mxCell>
                <mxCell id="261" value="&lt;font style=&quot;font-size: 11px;&quot;&gt;Storage classes&lt;/font&gt;" style="rounded=0;whiteSpace=wrap;html=1;strokeWidth=2;fontSize=14;fillColor=none;fontColor=default;" parent="1" vertex="1">
                    <mxGeometry x="517.5" y="525" width="110" height="20" as="geometry"/>
                </mxCell>
                <mxCell id="516" style="edgeStyle=none;html=1;exitX=1;exitY=0.5;exitDx=0;exitDy=0;entryX=0.001;entryY=0.532;entryDx=0;entryDy=0;fontSize=12;entryPerimeter=0;" parent="1" source="263" target="266" edge="1">
                    <mxGeometry relative="1" as="geometry"/>
                </mxCell>
                <mxCell id="517" style="edgeStyle=none;html=1;exitX=1;exitY=0.5;exitDx=0;exitDy=0;entryX=0;entryY=0.5;entryDx=0;entryDy=0;fontSize=12;" parent="1" source="263" target="265" edge="1">
                    <mxGeometry relative="1" as="geometry">
                        <Array as="points">
                            <mxPoint x="636.6800000000001" y="445.00000000000006"/>
                        </Array>
                    </mxGeometry>
                </mxCell>
                <mxCell id="518" style="edgeStyle=none;html=1;exitX=1;exitY=0.5;exitDx=0;exitDy=0;entryX=0;entryY=0.5;entryDx=0;entryDy=0;fontSize=12;" parent="1" source="263" target="268" edge="1">
                    <mxGeometry relative="1" as="geometry">
                        <Array as="points">
                            <mxPoint x="636.6800000000001" y="485.00000000000006"/>
                        </Array>
                    </mxGeometry>
                </mxCell>
                <mxCell id="263" value="&lt;font style=&quot;font-size: 11px;&quot;&gt;Storage aggregations&lt;/font&gt;" style="rounded=0;whiteSpace=wrap;html=1;strokeWidth=2;fontSize=14;fillColor=none;fontColor=default;" parent="1" vertex="1">
                    <mxGeometry x="517.5" y="455.00000000000006" width="110" height="20" as="geometry"/>
                </mxCell>
                <mxCell id="265" value="s-agg-0" style="rounded=0;whiteSpace=wrap;html=1;strokeWidth=1;fontSize=14;fillColor=none;fontColor=default;strokeColor=#BD7000;" parent="1" vertex="1">
                    <mxGeometry x="657.44" y="435.00000000000006" width="60" height="20" as="geometry"/>
                </mxCell>
                <mxCell id="266" value="s-agg-1" style="rounded=0;whiteSpace=wrap;html=1;strokeWidth=1;fontSize=14;fillColor=none;fontColor=default;strokeColor=#BD7000;" parent="1" vertex="1">
                    <mxGeometry x="657.44" y="455.00000000000006" width="60" height="18.95" as="geometry"/>
                </mxCell>
                <mxCell id="268" value="s-agg-..." style="rounded=0;whiteSpace=wrap;html=1;strokeWidth=1;fontSize=14;fillColor=none;fontColor=default;align=center;strokeColor=#BD7000;" parent="1" vertex="1">
                    <mxGeometry x="657.44" y="473.95000000000005" width="60" height="21.05" as="geometry"/>
                </mxCell>
                <mxCell id="529" style="edgeStyle=none;html=1;exitX=1;exitY=0.25;exitDx=0;exitDy=0;entryX=1;entryY=0.5;entryDx=0;entryDy=0;fontSize=12;" parent="1" source="271" target="266" edge="1">
                    <mxGeometry relative="1" as="geometry">
                        <Array as="points">
                            <mxPoint x="736.68" y="505.00000000000006"/>
                            <mxPoint x="736.68" y="475.00000000000006"/>
                        </Array>
                    </mxGeometry>
                </mxCell>
                <mxCell id="271" value="&lt;font style=&quot;font-size: 14px;&quot;&gt;s-class-0&lt;/font&gt;" style="rounded=0;whiteSpace=wrap;html=1;strokeWidth=1;fontSize=14;fillColor=none;fontColor=default;align=center;" parent="1" vertex="1">
                    <mxGeometry x="657.44" y="505.00000000000006" width="60" height="20" as="geometry"/>
                </mxCell>
                <mxCell id="530" style="edgeStyle=none;html=1;exitX=1;exitY=0.25;exitDx=0;exitDy=0;entryX=1;entryY=0.5;entryDx=0;entryDy=0;fontSize=12;" parent="1" source="273" target="265" edge="1">
                    <mxGeometry relative="1" as="geometry">
                        <Array as="points">
                            <mxPoint x="746.68" y="525.0000000000002"/>
                            <mxPoint x="746.68" y="455.00000000000006"/>
                        </Array>
                    </mxGeometry>
                </mxCell>
                <mxCell id="273" value="s-class-1" style="rounded=0;whiteSpace=wrap;html=1;strokeWidth=1;fontSize=14;fillColor=none;fontColor=default;align=center;" parent="1" vertex="1">
                    <mxGeometry x="657.44" y="525.0000000000002" width="60" height="20" as="geometry"/>
                </mxCell>
                <mxCell id="528" style="edgeStyle=none;html=1;exitX=1;exitY=0.25;exitDx=0;exitDy=0;fontSize=12;" parent="1" source="275" edge="1">
                    <mxGeometry relative="1" as="geometry">
                        <mxPoint x="717.5172093023256" y="485.00000000000006" as="targetPoint"/>
                        <Array as="points">
                            <mxPoint x="726.68" y="545.0000000000002"/>
                            <mxPoint x="726.68" y="495.00000000000006"/>
                        </Array>
                    </mxGeometry>
                </mxCell>
                <mxCell id="275" value="s-class-" style="rounded=0;whiteSpace=wrap;html=1;strokeWidth=1;fontSize=14;fillColor=none;fontColor=default;align=center;" parent="1" vertex="1">
                    <mxGeometry x="657.44" y="545.1300000000001" width="60" height="19.87" as="geometry"/>
                </mxCell>
                <mxCell id="287" value="&lt;font size=&quot;1&quot; style=&quot;&quot;&gt;&lt;span style=&quot;font-size: 12px;&quot;&gt;&lt;b&gt;OpenStack Environment (Storage)&lt;/b&gt;&lt;br&gt;&lt;/span&gt;&lt;/font&gt;" style="text;html=1;align=center;verticalAlign=middle;resizable=0;points=[];autosize=1;strokeColor=none;fillColor=none;fontSize=16;fontColor=default;" parent="1" vertex="1">
                    <mxGeometry x="523.7199999999999" y="384.00000000000006" width="220" height="30" as="geometry"/>
                </mxCell>
                <mxCell id="293" style="edgeStyle=none;html=1;exitX=0.533;exitY=-0.026;exitDx=0;exitDy=0;strokeWidth=2;fontSize=14;fillColor=#a20025;strokeColor=#6F0000;fontStyle=0;exitPerimeter=0;" parent="1" source="68" edge="1">
                    <mxGeometry relative="1" as="geometry">
                        <mxPoint x="254" y="330" as="targetPoint"/>
                        <mxPoint x="252.45000000000005" y="416.91000000000014" as="sourcePoint"/>
                    </mxGeometry>
                </mxCell>
                <mxCell id="78" style="edgeStyle=none;html=1;exitX=0.25;exitY=1;exitDx=0;exitDy=0;strokeWidth=2;fontSize=14;startArrow=classic;startFill=1;endArrow=none;endFill=0;fillColor=#a20025;strokeColor=#6F0000;" parent="1" source="31" edge="1">
                    <mxGeometry relative="1" as="geometry">
                        <mxPoint x="194" y="330" as="targetPoint"/>
                    </mxGeometry>
                </mxCell>
                <mxCell id="298" style="edgeStyle=none;html=1;exitX=0.601;exitY=0.003;exitDx=0;exitDy=0;entryX=0.603;entryY=1;entryDx=0;entryDy=0;entryPerimeter=0;strokeColor=#A50040;strokeWidth=3;fontSize=12;startArrow=none;startFill=0;endArrow=none;endFill=0;exitPerimeter=0;fillColor=#d80073;dashed=1;" parent="1" source="NjSvuLWsNGHZwNvL6HN8-10" target="NjSvuLWsNGHZwNvL6HN8-10" edge="1">
                    <mxGeometry relative="1" as="geometry"/>
                </mxCell>
                <mxCell id="313" style="edgeStyle=none;html=1;entryX=0.5;entryY=1;entryDx=0;entryDy=0;strokeWidth=1;fontSize=12;startArrow=none;startFill=0;endArrow=classic;endFill=1;dashed=1;fillColor=none;" parent="1" target="50" edge="1">
                    <mxGeometry relative="1" as="geometry">
                        <mxPoint x="104" y="680" as="sourcePoint"/>
                    </mxGeometry>
                </mxCell>
                <mxCell id="322" style="edgeStyle=none;html=1;exitX=0.5;exitY=1;exitDx=0;exitDy=0;entryX=1.025;entryY=0.632;entryDx=0;entryDy=0;entryPerimeter=0;strokeWidth=1;fontSize=12;startArrow=classic;startFill=1;endArrow=none;endFill=0;fillColor=none;dashed=1;" parent="1" source="301" target="321" edge="1">
                    <mxGeometry relative="1" as="geometry">
                        <Array as="points">
                            <mxPoint x="105.54999999999998" y="780.09"/>
                        </Array>
                    </mxGeometry>
                </mxCell>
                <mxCell id="301" value="&lt;span&gt;&lt;font style=&quot;font-size: 16px;&quot;&gt;KVM&lt;br&gt;CN&lt;/font&gt;&lt;/span&gt;" style="rounded=0;whiteSpace=wrap;html=1;fillColor=none;strokeWidth=2;strokeColor=#B20000;fontColor=default;fontStyle=0" parent="1" vertex="1">
                    <mxGeometry x="86.33999999999986" y="680.0900000000001" width="40" height="40" as="geometry"/>
                </mxCell>
                <mxCell id="302" style="edgeStyle=none;html=1;strokeWidth=1;fontSize=50;startArrow=none;startFill=0;endArrow=classic;endFill=1;fillColor=#dae8fc;gradientColor=#7ea6e0;strokeColor=#6c8ebf;fontColor=default;fontStyle=0" parent="1" source="303" edge="1">
                    <mxGeometry relative="1" as="geometry">
                        <mxPoint x="166.34" y="700.0900000000001" as="targetPoint"/>
                    </mxGeometry>
                </mxCell>
                <mxCell id="303" value="&lt;span&gt;NG&lt;/span&gt;" style="whiteSpace=wrap;html=1;aspect=fixed;fillColor=none;gradientColor=#7ea6e0;strokeColor=#6c8ebf;strokeWidth=2;fontColor=default;fontStyle=0" parent="1" vertex="1">
                    <mxGeometry x="126.33999999999989" y="690.0900000000001" width="20" height="20" as="geometry"/>
                </mxCell>
                <mxCell id="316" style="edgeStyle=none;html=1;exitX=0.478;exitY=-0.01;exitDx=0;exitDy=0;entryX=0.294;entryY=1.032;entryDx=0;entryDy=0;dashed=1;strokeWidth=1;fontSize=12;startArrow=none;startFill=0;endArrow=classic;endFill=1;fillColor=none;entryPerimeter=0;exitPerimeter=0;" parent="1" source="304" target="53" edge="1">
                    <mxGeometry relative="1" as="geometry">
                        <Array as="points">
                            <mxPoint x="224" y="630"/>
                            <mxPoint x="154" y="630"/>
                            <mxPoint x="154" y="400"/>
                            <mxPoint x="214" y="400"/>
                        </Array>
                    </mxGeometry>
                </mxCell>
                <mxCell id="323" style="edgeStyle=none;html=1;exitX=0.5;exitY=1;exitDx=0;exitDy=0;dashed=1;strokeWidth=1;fontSize=12;startArrow=classic;startFill=1;endArrow=none;endFill=0;fillColor=none;" parent="1" source="304" edge="1">
                    <mxGeometry relative="1" as="geometry">
                        <mxPoint x="95.54999999999998" y="780.09" as="targetPoint"/>
                        <Array as="points">
                            <mxPoint x="225.55" y="780.09"/>
                        </Array>
                    </mxGeometry>
                </mxCell>
                <mxCell id="304" value="&lt;span&gt;&lt;font style=&quot;font-size: 16px;&quot;&gt;GPU&lt;br&gt;CN&lt;/font&gt;&lt;/span&gt;" style="rounded=0;whiteSpace=wrap;html=1;fillColor=none;strokeWidth=2;strokeColor=#C73500;fontColor=default;fontStyle=0" parent="1" vertex="1">
                    <mxGeometry x="204.7600000000001" y="680.0900000000001" width="40" height="40" as="geometry"/>
                </mxCell>
                <mxCell id="305" style="edgeStyle=none;html=1;exitX=0;exitY=0.5;exitDx=0;exitDy=0;strokeWidth=1;fontSize=50;startArrow=none;startFill=0;endArrow=classic;endFill=1;fillColor=#dae8fc;gradientColor=#7ea6e0;strokeColor=#6c8ebf;fontColor=default;fontStyle=0" parent="1" source="306" edge="1">
                    <mxGeometry relative="1" as="geometry">
                        <mxPoint x="166.34" y="700.0900000000001" as="targetPoint"/>
                        <Array as="points">
                            <mxPoint x="176.34" y="700.0900000000001"/>
                        </Array>
                    </mxGeometry>
                </mxCell>
                <mxCell id="306" value="&lt;span&gt;NG&lt;/span&gt;" style="whiteSpace=wrap;html=1;aspect=fixed;fillColor=none;gradientColor=#7ea6e0;strokeColor=#6c8ebf;strokeWidth=2;fontColor=default;fontStyle=0" parent="1" vertex="1">
                    <mxGeometry x="184.76000000000008" y="690.0900000000001" width="20" height="20" as="geometry"/>
                </mxCell>
                <mxCell id="314" style="edgeStyle=none;html=1;entryX=0.536;entryY=1.029;entryDx=0;entryDy=0;dashed=1;strokeWidth=1;fontSize=12;startArrow=none;startFill=0;endArrow=classic;endFill=1;entryPerimeter=0;fillColor=none;" parent="1" target="56" edge="1">
                    <mxGeometry relative="1" as="geometry">
                        <mxPoint x="414" y="680" as="sourcePoint"/>
                    </mxGeometry>
                </mxCell>
                <mxCell id="325" style="edgeStyle=none;html=1;exitX=0.5;exitY=1;exitDx=0;exitDy=0;dashed=1;strokeWidth=1;fontSize=12;startArrow=classic;startFill=1;endArrow=none;endFill=0;fillColor=none;" parent="1" source="307" edge="1">
                    <mxGeometry relative="1" as="geometry">
                        <mxPoint x="285.55000000000007" y="780.09" as="targetPoint"/>
                        <Array as="points">
                            <mxPoint x="415.55000000000007" y="780.09"/>
                        </Array>
                    </mxGeometry>
                </mxCell>
                <mxCell id="307" value="&lt;span&gt;&lt;font style=&quot;font-size: 16px;&quot;&gt;SN&lt;/font&gt;&lt;/span&gt;" style="rounded=0;whiteSpace=wrap;html=1;fillColor=none;strokeWidth=2;strokeColor=#BD7000;fontColor=default;fontStyle=0" parent="1" vertex="1">
                    <mxGeometry x="394.76000000000016" y="680.0900000000001" width="40" height="40" as="geometry"/>
                </mxCell>
                <mxCell id="308" style="edgeStyle=none;html=1;exitX=0;exitY=0.5;exitDx=0;exitDy=0;fontSize=14;fillColor=#dae8fc;gradientColor=#7ea6e0;strokeColor=#6c8ebf;fontColor=default;fontStyle=0" parent="1" source="309" edge="1">
                    <mxGeometry relative="1" as="geometry">
                        <mxPoint x="356.3400000000001" y="700.1026582278482" as="targetPoint"/>
                    </mxGeometry>
                </mxCell>
                <mxCell id="309" value="&lt;span&gt;NG&lt;/span&gt;" style="whiteSpace=wrap;html=1;aspect=fixed;fillColor=none;gradientColor=#7ea6e0;strokeColor=#6c8ebf;strokeWidth=2;fontColor=default;fontStyle=0" parent="1" vertex="1">
                    <mxGeometry x="374.76000000000016" y="690.0900000000001" width="20" height="20" as="geometry"/>
                </mxCell>
                <mxCell id="315" style="edgeStyle=none;html=1;exitX=0.48;exitY=-0.002;exitDx=0;exitDy=0;entryX=0.767;entryY=1.032;entryDx=0;entryDy=0;dashed=1;strokeWidth=1;fontSize=12;startArrow=none;startFill=0;endArrow=classic;endFill=1;fillColor=none;entryPerimeter=0;exitPerimeter=0;" parent="1" source="310" target="59" edge="1">
                    <mxGeometry relative="1" as="geometry">
                        <Array as="points">
                            <mxPoint x="294" y="630"/>
                            <mxPoint x="344" y="630"/>
                            <mxPoint x="344" y="400"/>
                            <mxPoint x="304" y="400"/>
                        </Array>
                    </mxGeometry>
                </mxCell>
                <mxCell id="324" style="edgeStyle=none;html=1;exitX=0.5;exitY=1;exitDx=0;exitDy=0;dashed=1;strokeWidth=1;fontSize=12;startArrow=classic;startFill=1;endArrow=none;endFill=0;fillColor=none;" parent="1" source="310" edge="1">
                    <mxGeometry relative="1" as="geometry">
                        <mxPoint x="215.55" y="780.09" as="targetPoint"/>
                        <Array as="points">
                            <mxPoint x="295.55000000000007" y="780.09"/>
                        </Array>
                    </mxGeometry>
                </mxCell>
                <mxCell id="310" value="&lt;span&gt;&lt;font style=&quot;font-size: 16px;&quot;&gt;HT-2&lt;br&gt;CN&lt;/font&gt;&lt;/span&gt;" style="rounded=0;whiteSpace=wrap;html=1;fillColor=none;strokeWidth=2;strokeColor=#A50040;fontColor=default;fontStyle=0" parent="1" vertex="1">
                    <mxGeometry x="274.79000000000013" y="680.0900000000001" width="40" height="40" as="geometry"/>
                </mxCell>
                <mxCell id="311" style="edgeStyle=none;html=1;fillColor=#dae8fc;gradientColor=#7ea6e0;strokeColor=#6c8ebf;fontColor=default;fontStyle=0" parent="1" source="312" edge="1">
                    <mxGeometry relative="1" as="geometry">
                        <mxPoint x="356.3400000000001" y="700.0900000000001" as="targetPoint"/>
                    </mxGeometry>
                </mxCell>
                <mxCell id="312" value="&lt;span&gt;NG&lt;/span&gt;" style="whiteSpace=wrap;html=1;aspect=fixed;fillColor=none;gradientColor=#7ea6e0;strokeColor=#6c8ebf;strokeWidth=2;fontColor=default;fontStyle=0" parent="1" vertex="1">
                    <mxGeometry x="314.79000000000013" y="690.0900000000001" width="20" height="20" as="geometry"/>
                </mxCell>
                <mxCell id="317" value="&lt;font style=&quot;font-size: 16px;&quot;&gt;Blockchain&lt;/font&gt;" style="text;html=1;align=center;verticalAlign=middle;resizable=0;points=[];autosize=1;strokeColor=none;fillColor=none;fontSize=16;fontColor=default;" parent="1" vertex="1">
                    <mxGeometry x="470.5500000000003" y="670.0000000000001" width="100" height="30" as="geometry"/>
                </mxCell>
                <mxCell id="319" style="edgeStyle=none;html=1;exitX=0.083;exitY=0.5;exitDx=0;exitDy=0;exitPerimeter=0;strokeColor=#6c8ebf;strokeWidth=1;fontSize=12;startArrow=classic;startFill=1;endArrow=none;endFill=0;fillColor=#dae8fc;gradientColor=#7ea6e0;" parent="1" source="318" edge="1">
                    <mxGeometry relative="1" as="geometry">
                        <mxPoint x="164" y="740" as="targetPoint"/>
                    </mxGeometry>
                </mxCell>
                <mxCell id="321" value="" style="sketch=0;html=1;aspect=fixed;strokeColor=none;shadow=0;align=center;verticalAlign=top;fillColor=#3B8DF1;shape=mxgraph.gcp2.globe_world;strokeWidth=3;" parent="1" vertex="1">
                    <mxGeometry x="18.179999999999996" y="740" width="67.37" height="64" as="geometry"/>
                </mxCell>
                <mxCell id="330" value="&lt;font style=&quot;font-size: 14px;&quot;&gt;Distributet VM&lt;/font&gt;" style="rounded=0;whiteSpace=wrap;html=1;strokeColor=#d6b656;strokeWidth=2;fillColor=none;rotation=0;gradientColor=#ffd966;" parent="1" vertex="1">
                    <mxGeometry x="829.83" y="211.87" width="90" height="30" as="geometry"/>
                </mxCell>
                <mxCell id="334" value="&lt;font style=&quot;font-size: 14px;&quot;&gt;Distributet VM&lt;/font&gt;" style="rounded=0;whiteSpace=wrap;html=1;strokeColor=#d6b656;strokeWidth=2;fillColor=none;rotation=0;gradientColor=#ffd966;" parent="1" vertex="1">
                    <mxGeometry x="829.37" y="261.87" width="90.46" height="30" as="geometry"/>
                </mxCell>
                <mxCell id="392" style="edgeStyle=none;html=1;exitX=0.088;exitY=0.4;exitDx=0;exitDy=0;strokeColor=#d6b656;strokeWidth=2;fontSize=13;fontColor=#D6B656;startArrow=none;startFill=0;endArrow=classic;endFill=1;fillColor=#fff2cc;gradientColor=#ffd966;exitPerimeter=0;entryX=0;entryY=0.5;entryDx=0;entryDy=0;" parent="1" source="539" target="379" edge="1">
                    <mxGeometry relative="1" as="geometry">
                        <Array as="points">
                            <mxPoint x="969.83" y="241.87"/>
                            <mxPoint x="969.83" y="401.87"/>
                        </Array>
                    </mxGeometry>
                </mxCell>
                <mxCell id="338" value="&lt;font style=&quot;font-size: 14px;&quot;&gt;Distributet VM&lt;/font&gt;" style="rounded=0;whiteSpace=wrap;html=1;strokeColor=#d6b656;strokeWidth=2;fillColor=none;rotation=0;gradientColor=#ffd966;" parent="1" vertex="1">
                    <mxGeometry x="999.83" y="211.87" width="90" height="30" as="geometry"/>
                </mxCell>
                <mxCell id="342" value="&lt;font style=&quot;font-size: 14px;&quot;&gt;Distributet VM&lt;/font&gt;" style="rounded=0;whiteSpace=wrap;html=1;strokeColor=#d6b656;strokeWidth=2;fillColor=none;rotation=0;gradientColor=#ffd966;" parent="1" vertex="1">
                    <mxGeometry x="999.83" y="261.87" width="90" height="30" as="geometry"/>
                </mxCell>
                <mxCell id="373" style="edgeStyle=none;html=1;strokeColor=#6F0000;strokeWidth=2;fontSize=14;fontColor=#D6B656;startArrow=classic;startFill=1;endArrow=classic;endFill=1;fillColor=#a20025;exitX=0.787;exitY=0.047;exitDx=0;exitDy=0;exitPerimeter=0;" parent="1" source="548" edge="1">
                    <mxGeometry relative="1" as="geometry">
                        <mxPoint x="959.83" y="161.87" as="sourcePoint"/>
                        <mxPoint x="959.83" y="271.87" as="targetPoint"/>
                    </mxGeometry>
                </mxCell>
                <mxCell id="332" value="&lt;span style=&quot;font-size: 15px;&quot;&gt;OpenStack Controller Node&lt;br&gt;&lt;/span&gt;" style="rounded=0;whiteSpace=wrap;html=1;strokeColor=#6F0000;strokeWidth=2;fillColor=none;fontColor=default;rotation=0;" parent="1" vertex="1">
                    <mxGeometry x="799.83" y="127" width="320" height="30" as="geometry"/>
                </mxCell>
                <mxCell id="389" style="edgeStyle=none;html=1;exitX=0.75;exitY=-0.051;exitDx=0;exitDy=0;strokeColor=#d6b656;strokeWidth=2;fontSize=13;fontColor=#D6B656;startArrow=classic;startFill=1;endArrow=none;endFill=0;fillColor=#fff2cc;gradientColor=#ffd966;entryX=0.791;entryY=-0.013;entryDx=0;entryDy=0;entryPerimeter=0;exitPerimeter=0;" parent="1" source="378" target="541" edge="1">
                    <mxGeometry relative="1" as="geometry">
                        <mxPoint x="859.83" y="318.78" as="targetPoint"/>
                    </mxGeometry>
                </mxCell>
                <mxCell id="379" value="&lt;font style=&quot;font-size: 12px;&quot;&gt;SSD s&lt;/font&gt;torage node-0" style="rounded=0;whiteSpace=wrap;html=1;fillColor=none;strokeWidth=1;strokeColor=#BD7000;fontColor=default;" parent="1" vertex="1">
                    <mxGeometry x="980.29" y="391.87" width="119.54" height="20" as="geometry"/>
                </mxCell>
                <mxCell id="550" style="edgeStyle=none;html=1;exitX=1.01;exitY=0.5;exitDx=0;exitDy=0;startArrow=classic;startFill=1;endArrow=none;endFill=0;fillColor=#a20025;strokeColor=#6F0000;strokeWidth=2;exitPerimeter=0;" parent="1" source="380" edge="1">
                    <mxGeometry relative="1" as="geometry">
                        <mxPoint x="959.83" y="421.87" as="targetPoint"/>
                    </mxGeometry>
                </mxCell>
                <mxCell id="380" value="HDD storage node-1" style="rounded=0;whiteSpace=wrap;html=1;fillColor=none;strokeWidth=1;strokeColor=#BD7000;fontColor=default;" parent="1" vertex="1">
                    <mxGeometry x="819.2" y="411.74" width="120" height="20" as="geometry"/>
                </mxCell>
                <mxCell id="551" style="edgeStyle=none;html=1;exitX=-0.012;exitY=0.504;exitDx=0;exitDy=0;startArrow=classic;startFill=1;endArrow=none;endFill=0;fillColor=#a20025;strokeColor=#6F0000;strokeWidth=2;exitPerimeter=0;" parent="1" source="381" edge="1">
                    <mxGeometry relative="1" as="geometry">
                        <mxPoint x="958.83" y="421.87" as="targetPoint"/>
                    </mxGeometry>
                </mxCell>
                <mxCell id="381" value="SSD storage node-1" style="rounded=0;whiteSpace=wrap;html=1;fillColor=none;strokeWidth=1;strokeColor=#BD7000;fontColor=default;" parent="1" vertex="1">
                    <mxGeometry x="980.29" y="411.87" width="119.54" height="20" as="geometry"/>
                </mxCell>
                <mxCell id="382" value="&lt;font style=&quot;font-size: 12px;&quot;&gt;...&lt;/font&gt;" style="rounded=0;whiteSpace=wrap;html=1;fillColor=none;strokeWidth=1;strokeColor=#BD7000;fontColor=default;" parent="1" vertex="1">
                    <mxGeometry x="819.2" y="431.74" width="120" height="20" as="geometry"/>
                </mxCell>
                <mxCell id="383" value="&lt;font style=&quot;font-size: 12px;&quot;&gt;...&lt;/font&gt;" style="rounded=0;whiteSpace=wrap;html=1;fillColor=none;strokeWidth=1;strokeColor=#BD7000;fontColor=default;" parent="1" vertex="1">
                    <mxGeometry x="980.29" y="431.74" width="119.54" height="20" as="geometry"/>
                </mxCell>
                <mxCell id="390" style="edgeStyle=none;html=1;exitX=0.209;exitY=-0.002;exitDx=0;exitDy=0;entryX=0.248;entryY=-0.044;entryDx=0;entryDy=0;strokeColor=#d6b656;strokeWidth=2;fontSize=13;fontColor=#D6B656;startArrow=none;startFill=0;endArrow=classic;endFill=1;fillColor=#fff2cc;gradientColor=#ffd966;exitPerimeter=0;entryPerimeter=0;" parent="1" source="542" target="379" edge="1">
                    <mxGeometry relative="1" as="geometry"/>
                </mxCell>
                <mxCell id="391" style="edgeStyle=none;html=1;entryX=1.003;entryY=0.152;entryDx=0;entryDy=0;strokeColor=#d6b656;strokeWidth=2;fontSize=13;fontColor=#D6B656;startArrow=none;startFill=0;endArrow=classic;endFill=1;fillColor=#fff2cc;gradientColor=#ffd966;entryPerimeter=0;" parent="1" target="430" edge="1">
                    <mxGeometry relative="1" as="geometry">
                        <Array as="points">
                            <mxPoint x="949.83" y="241.87"/>
                            <mxPoint x="949.83" y="401.87"/>
                        </Array>
                        <mxPoint x="919.83" y="241.87" as="sourcePoint"/>
                    </mxGeometry>
                </mxCell>
                <mxCell id="393" value="&lt;span style=&quot;&quot;&gt;&lt;font style=&quot;&quot;&gt;&lt;font color=&quot;#bd7000&quot; style=&quot;font-size: 40px;&quot;&gt;...&lt;/font&gt;&lt;br&gt;&lt;/font&gt;&lt;/span&gt;" style="text;html=1;align=center;verticalAlign=middle;resizable=0;points=[];autosize=1;strokeColor=none;fillColor=none;fontColor=default;rotation=-90;fontStyle=1" parent="1" vertex="1">
                    <mxGeometry x="917.8299999999998" y="414.47999999999996" width="60" height="60" as="geometry"/>
                </mxCell>
                <mxCell id="218" value="h-agg-1" style="rounded=0;whiteSpace=wrap;html=1;strokeWidth=2;fontSize=14;fillColor=none;fontColor=default;strokeColor=#314354;" parent="1" vertex="1">
                    <mxGeometry x="657.5" y="201.44" width="60" height="19.34" as="geometry"/>
                </mxCell>
                <mxCell id="217" value="h-agg-0" style="rounded=0;whiteSpace=wrap;html=1;strokeWidth=2;fontSize=14;fillColor=none;fontColor=default;strokeColor=#314354;" parent="1" vertex="1">
                    <mxGeometry x="657.5" y="180.77999999999997" width="60" height="20.66" as="geometry"/>
                </mxCell>
                <mxCell id="395" value="&lt;font style=&quot;&quot;&gt;&lt;font style=&quot;font-size: 15px;&quot;&gt;Virtualisation, ressource and network providing&amp;nbsp;&lt;/font&gt;&lt;br&gt;&lt;/font&gt;" style="text;html=1;align=center;verticalAlign=middle;resizable=0;points=[];autosize=1;strokeColor=none;fillColor=none;fontSize=16;fontColor=default;rotation=-90;" parent="1" vertex="1">
                    <mxGeometry x="283.23000000000025" y="460.00000000000006" width="340" height="30" as="geometry"/>
                </mxCell>
                <mxCell id="397" value="&lt;font style=&quot;font-size: 15px;&quot;&gt;Ressource classification and aggregation&lt;/font&gt;" style="text;html=1;align=center;verticalAlign=middle;resizable=0;points=[];autosize=1;strokeColor=none;fillColor=none;fontSize=16;fontColor=default;rotation=90;" parent="1" vertex="1">
                    <mxGeometry x="345.55000000000024" y="462.61" width="300" height="30" as="geometry"/>
                </mxCell>
                <mxCell id="406" value="&lt;font style=&quot;font-size: 16px;&quot;&gt;Global Region 1&lt;/font&gt;" style="rounded=0;whiteSpace=wrap;html=1;fillColor=none;strokeColor=#009999;strokeWidth=3;" parent="1" vertex="1">
                    <mxGeometry x="605.5499999999998" y="673.09" width="130" height="40" as="geometry"/>
                </mxCell>
                <mxCell id="407" value="&lt;font style=&quot;font-size: 16px;&quot;&gt;Global Region 2&lt;/font&gt;" style="rounded=0;whiteSpace=wrap;html=1;fillColor=none;strokeColor=#009999;strokeWidth=3;" parent="1" vertex="1">
                    <mxGeometry x="645.5499999999998" y="723.09" width="128.45" height="40" as="geometry"/>
                </mxCell>
                <mxCell id="408" value="&lt;font style=&quot;font-size: 16px;&quot;&gt;Global Region ...&lt;/font&gt;" style="rounded=0;whiteSpace=wrap;html=1;fillColor=none;strokeColor=#009999;strokeWidth=3;" parent="1" vertex="1">
                    <mxGeometry x="605.5499999999998" y="773.09" width="130" height="40" as="geometry"/>
                </mxCell>
                <mxCell id="487" style="edgeStyle=none;html=1;exitX=1;exitY=0.5;exitDx=0;exitDy=0;entryX=0;entryY=0.5;entryDx=0;entryDy=0;strokeColor=default;strokeWidth=1;fontSize=14;fontColor=default;" parent="1" source="409" target="218" edge="1">
                    <mxGeometry relative="1" as="geometry"/>
                </mxCell>
                <mxCell id="488" style="edgeStyle=none;html=1;exitX=1;exitY=0.5;exitDx=0;exitDy=0;entryX=0;entryY=0.5;entryDx=0;entryDy=0;strokeColor=default;strokeWidth=1;fontSize=14;fontColor=default;" parent="1" source="409" target="219" edge="1">
                    <mxGeometry relative="1" as="geometry">
                        <Array as="points">
                            <mxPoint x="637.5" y="230.78"/>
                        </Array>
                    </mxGeometry>
                </mxCell>
                <mxCell id="489" style="edgeStyle=none;html=1;exitX=1;exitY=0.5;exitDx=0;exitDy=0;entryX=0;entryY=0.5;entryDx=0;entryDy=0;strokeColor=default;strokeWidth=1;fontSize=14;fontColor=default;" parent="1" source="409" target="217" edge="1">
                    <mxGeometry relative="1" as="geometry">
                        <Array as="points">
                            <mxPoint x="637.5" y="190.77999999999997"/>
                        </Array>
                    </mxGeometry>
                </mxCell>
                <mxCell id="409" value="&lt;font style=&quot;font-size: 12px;&quot;&gt;Host aggregates&lt;/font&gt;" style="rounded=0;whiteSpace=wrap;html=1;strokeWidth=2;fontSize=14;fillColor=none;fontColor=default;" parent="1" vertex="1">
                    <mxGeometry x="517.5" y="200.77999999999997" width="112.34" height="20" as="geometry"/>
                </mxCell>
                <mxCell id="498" style="edgeStyle=none;html=1;exitX=1;exitY=0.5;exitDx=0;exitDy=0;entryX=1;entryY=0.5;entryDx=0;entryDy=0;dashed=1;strokeColor=default;strokeWidth=1;fontSize=14;fontColor=default;" parent="1" source="411" target="209" edge="1">
                    <mxGeometry relative="1" as="geometry">
                        <Array as="points">
                            <mxPoint x="747.5" y="330.78"/>
                            <mxPoint x="747.5" y="280.78"/>
                        </Array>
                    </mxGeometry>
                </mxCell>
                <mxCell id="411" value="&lt;font style=&quot;font-size: 14px;&quot;&gt;c-type-0&lt;/font&gt;" style="rounded=0;whiteSpace=wrap;html=1;strokeWidth=2;fontSize=14;fillColor=none;fontColor=default;align=center;strokeColor=#B20000;" parent="1" vertex="1">
                    <mxGeometry x="657.5" y="320.78" width="60" height="20" as="geometry"/>
                </mxCell>
                <mxCell id="499" style="edgeStyle=none;html=1;exitX=1;exitY=0.5;exitDx=0;exitDy=0;entryX=1;entryY=0.5;entryDx=0;entryDy=0;dashed=1;strokeColor=default;strokeWidth=1;fontSize=14;fontColor=default;" parent="1" source="412" target="208" edge="1">
                    <mxGeometry relative="1" as="geometry">
                        <Array as="points">
                            <mxPoint x="737.5" y="350.78"/>
                            <mxPoint x="737.5" y="260.78"/>
                        </Array>
                    </mxGeometry>
                </mxCell>
                <mxCell id="412" value="c-type-1" style="rounded=0;whiteSpace=wrap;html=1;strokeWidth=2;fontSize=14;fillColor=none;fontColor=default;align=center;strokeColor=#C73500;" parent="1" vertex="1">
                    <mxGeometry x="657.5" y="340.78" width="60" height="20" as="geometry"/>
                </mxCell>
                <mxCell id="500" style="edgeStyle=none;html=1;exitX=1;exitY=0.5;exitDx=0;exitDy=0;entryX=1;entryY=0.5;entryDx=0;entryDy=0;dashed=1;strokeColor=default;strokeWidth=1;fontSize=14;fontColor=default;" parent="1" source="413" target="485" edge="1">
                    <mxGeometry relative="1" as="geometry">
                        <Array as="points">
                            <mxPoint x="727.5" y="370.78"/>
                            <mxPoint x="727.5" y="300.78"/>
                        </Array>
                    </mxGeometry>
                </mxCell>
                <mxCell id="413" value="c-type-..." style="rounded=0;whiteSpace=wrap;html=1;strokeWidth=2;fontSize=14;fillColor=none;fontColor=default;align=center;strokeColor=#A50040;" parent="1" vertex="1">
                    <mxGeometry x="657.5" y="360.78" width="60" height="19.22" as="geometry"/>
                </mxCell>
                <mxCell id="527" style="edgeStyle=none;html=1;exitX=1;exitY=0.5;exitDx=0;exitDy=0;entryX=1;entryY=0.5;entryDx=0;entryDy=0;fontSize=12;dashed=1;" parent="1" source="424" target="273" edge="1">
                    <mxGeometry relative="1" as="geometry">
                        <Array as="points">
                            <mxPoint x="746.68" y="585.0000000000001"/>
                            <mxPoint x="746.68" y="535.0000000000002"/>
                        </Array>
                    </mxGeometry>
                </mxCell>
                <mxCell id="424" value="&lt;font style=&quot;font-size: 14px;&quot;&gt;s-node-0&lt;/font&gt;" style="rounded=0;whiteSpace=wrap;html=1;strokeWidth=1;fontSize=14;fillColor=none;align=center;gradientColor=#ffa500;strokeColor=#BD7000;" parent="1" vertex="1">
                    <mxGeometry x="657.44" y="575.0000000000001" width="60" height="20" as="geometry"/>
                </mxCell>
                <mxCell id="526" style="edgeStyle=none;html=1;exitX=1;exitY=0.5;exitDx=0;exitDy=0;entryX=1.005;entryY=0.42;entryDx=0;entryDy=0;entryPerimeter=0;fontSize=12;dashed=1;" parent="1" source="425" target="271" edge="1">
                    <mxGeometry relative="1" as="geometry">
                        <Array as="points">
                            <mxPoint x="736.68" y="605.0000000000001"/>
                            <mxPoint x="736.68" y="515.0000000000002"/>
                        </Array>
                    </mxGeometry>
                </mxCell>
                <mxCell id="425" value="s-node-1" style="rounded=0;whiteSpace=wrap;html=1;strokeWidth=1;fontSize=14;fillColor=none;fontColor=default;align=center;strokeColor=#BD7000;" parent="1" vertex="1">
                    <mxGeometry x="657.44" y="595.0000000000001" width="60" height="20" as="geometry"/>
                </mxCell>
                <mxCell id="525" style="edgeStyle=none;html=1;exitX=1;exitY=0.5;exitDx=0;exitDy=0;fontSize=12;dashed=1;" parent="1" source="426" edge="1">
                    <mxGeometry relative="1" as="geometry">
                        <mxPoint x="717.5172093023256" y="555.0000000000001" as="targetPoint"/>
                        <Array as="points">
                            <mxPoint x="726.68" y="625.0000000000001"/>
                            <mxPoint x="726.68" y="555.0000000000001"/>
                        </Array>
                    </mxGeometry>
                </mxCell>
                <mxCell id="426" value="s-node-" style="rounded=0;whiteSpace=wrap;html=1;strokeWidth=1;fontSize=14;fillColor=none;fontColor=default;align=center;strokeColor=#BD7000;" parent="1" vertex="1">
                    <mxGeometry x="657.44" y="615.0000000000001" width="60" height="20" as="geometry"/>
                </mxCell>
                <mxCell id="432" value="&lt;div style=&quot;text-align: justify;&quot;&gt;&lt;span style=&quot;font-size: 10px; background-color: initial;&quot;&gt;&lt;div style=&quot;text-align: justify;&quot;&gt;&lt;span style=&quot;background-color: initial; text-align: left;&quot;&gt;Storage aggregation&lt;br&gt;group-0&amp;nbsp;&lt;/span&gt;&lt;/div&gt;&lt;/span&gt;&lt;/div&gt;" style="text;html=1;align=center;verticalAlign=middle;resizable=0;points=[];autosize=1;strokeColor=none;fillColor=none;fontSize=16;fontColor=default;rotation=0;" parent="1" vertex="1">
                    <mxGeometry x="809.8300000000002" y="445.82" width="110" height="40" as="geometry"/>
                </mxCell>
                <mxCell id="451" style="edgeStyle=none;html=1;exitX=0;exitY=0.75;exitDx=0;exitDy=0;strokeWidth=1;fontSize=12;startArrow=none;startFill=0;endArrow=classic;endFill=1;fillColor=#e51400;strokeColor=#B20000;entryX=0.026;entryY=0.956;entryDx=0;entryDy=0;entryPerimeter=0;" parent="1" source="437" target="67" edge="1">
                    <mxGeometry relative="1" as="geometry">
                        <mxPoint x="144" y="330" as="targetPoint"/>
                        <Array as="points">
                            <mxPoint x="144" y="550"/>
                            <mxPoint x="74" y="550"/>
                        </Array>
                    </mxGeometry>
                </mxCell>
                <mxCell id="482" style="edgeStyle=none;html=1;exitX=0;exitY=0.5;exitDx=0;exitDy=0;entryX=0.31;entryY=0.956;entryDx=0;entryDy=0;entryPerimeter=0;strokeWidth=1;fontSize=14;fillColor=#fa6800;strokeColor=#C73500;" parent="1" source="437" target="67" edge="1">
                    <mxGeometry relative="1" as="geometry">
                        <Array as="points">
                            <mxPoint x="144" y="540"/>
                            <mxPoint x="144" y="420"/>
                            <mxPoint x="144" y="340"/>
                            <mxPoint x="184" y="340"/>
                        </Array>
                    </mxGeometry>
                </mxCell>
                <mxCell id="483" style="edgeStyle=none;html=1;exitX=0;exitY=0.25;exitDx=0;exitDy=0;entryX=0.02;entryY=1.014;entryDx=0;entryDy=0;entryPerimeter=0;strokeWidth=1;fontSize=14;fillColor=#d80073;strokeColor=#A50040;" parent="1" source="437" target="32" edge="1">
                    <mxGeometry relative="1" as="geometry">
                        <Array as="points">
                            <mxPoint x="164" y="530"/>
                            <mxPoint x="164" y="390"/>
                            <mxPoint x="184" y="390"/>
                            <mxPoint x="264" y="390"/>
                        </Array>
                    </mxGeometry>
                </mxCell>
                <mxCell id="437" value="&lt;font style=&quot;font-size: 13px;&quot;&gt;OpSt&lt;br&gt;&lt;span style=&quot;&quot;&gt;ComN&lt;/span&gt;&lt;br&gt;&lt;/font&gt;" style="rounded=0;whiteSpace=wrap;html=1;strokeColor=#6F0000;strokeWidth=2;fontSize=14;fillColor=none;fontColor=default;" parent="1" vertex="1">
                    <mxGeometry x="184.76" y="521" width="40" height="39.13" as="geometry"/>
                </mxCell>
                <mxCell id="450" style="edgeStyle=none;html=1;exitX=1.01;exitY=0.484;exitDx=0;exitDy=0;strokeWidth=1;fontSize=12;startArrow=none;startFill=0;endArrow=classic;endFill=1;fillColor=#a20025;strokeColor=#82B366;exitPerimeter=0;entryX=0.97;entryY=1.008;entryDx=0;entryDy=0;entryPerimeter=0;" parent="1" source="472" target="67" edge="1">
                    <mxGeometry relative="1" as="geometry">
                        <mxPoint x="364" y="330" as="targetPoint"/>
                        <Array as="points">
                            <mxPoint x="364" y="540"/>
                            <mxPoint x="444" y="540"/>
                        </Array>
                        <mxPoint x="324" y="530.0307000000001" as="sourcePoint"/>
                    </mxGeometry>
                </mxCell>
                <mxCell id="456" style="edgeStyle=none;html=1;exitX=1;exitY=0.5;exitDx=0;exitDy=0;strokeWidth=1;fontSize=11;startArrow=none;startFill=0;endArrow=classic;endFill=1;fillColor=#dae8fc;gradientColor=#7ea6e0;strokeColor=#6c8ebf;fontColor=default;" parent="1" source="447" edge="1">
                    <mxGeometry relative="1" as="geometry">
                        <mxPoint x="354" y="570" as="targetPoint"/>
                    </mxGeometry>
                </mxCell>
                <mxCell id="455" style="edgeStyle=none;html=1;strokeWidth=1;fontSize=11;startArrow=none;startFill=0;endArrow=classic;endFill=1;fillColor=#dae8fc;gradientColor=#7ea6e0;strokeColor=#6c8ebf;fontColor=default;" parent="1" source="446" edge="1">
                    <mxGeometry relative="1" as="geometry">
                        <mxPoint x="164" y="570" as="targetPoint"/>
                    </mxGeometry>
                </mxCell>
                <mxCell id="446" value="&lt;span&gt;NG&lt;/span&gt;" style="whiteSpace=wrap;html=1;aspect=fixed;fillColor=none;gradientColor=#7ea6e0;strokeColor=#6c8ebf;strokeWidth=2;fontColor=default;fontStyle=0;" parent="1" vertex="1">
                    <mxGeometry x="194.76000000000005" y="560.13" width="20" height="20" as="geometry"/>
                </mxCell>
                <mxCell id="454" value="&lt;font style=&quot;font-size: 16px;&quot;&gt;Computational&amp;nbsp;network 0&lt;/font&gt;" style="text;html=1;align=center;verticalAlign=middle;resizable=0;points=[];autosize=1;strokeColor=none;fillColor=none;fontSize=16;fontColor=default;rotation=-90;" parent="1" vertex="1">
                    <mxGeometry x="23.180000000000227" y="494.99999999999994" width="200" height="30" as="geometry"/>
                </mxCell>
                <mxCell id="457" value="&lt;div style=&quot;&quot;&gt;&lt;span style=&quot;font-size: 10px;&quot;&gt;Storage aggregation&lt;/span&gt;&lt;/div&gt;&lt;font style=&quot;font-size: 10px;&quot;&gt;&lt;font style=&quot;font-size: 10px;&quot;&gt;&lt;div style=&quot;&quot;&gt;group-...&lt;/div&gt;&lt;/font&gt;&lt;/font&gt;" style="text;html=1;align=right;verticalAlign=middle;resizable=0;points=[];autosize=1;strokeColor=none;fillColor=none;fontSize=16;fontColor=default;rotation=0;" parent="1" vertex="1">
                    <mxGeometry x="990.2900000000002" y="443.16" width="110" height="40" as="geometry"/>
                </mxCell>
                <mxCell id="458" value="&lt;font style=&quot;&quot;&gt;&lt;font color=&quot;#6f0000&quot; style=&quot;font-size: 20px;&quot;&gt;...&lt;/font&gt;&lt;br style=&quot;font-size: 14px;&quot;&gt;&lt;/font&gt;" style="text;html=1;align=center;verticalAlign=middle;resizable=0;points=[];autosize=1;strokeColor=none;fillColor=none;fontColor=default;rotation=0;fontStyle=1;fontSize=14;" parent="1" vertex="1">
                    <mxGeometry x="213.9999999999998" y="471.2899999999998" width="40" height="40" as="geometry"/>
                </mxCell>
                <mxCell id="481" style="edgeStyle=none;html=1;exitX=0.75;exitY=0;exitDx=0;exitDy=0;strokeWidth=1;fontSize=14;fillColor=#f0a30a;strokeColor=#BD7000;entryX=0.514;entryY=1.011;entryDx=0;entryDy=0;entryPerimeter=0;" parent="1" source="471" target="33" edge="1">
                    <mxGeometry relative="1" as="geometry">
                        <mxPoint x="404" y="310" as="targetPoint"/>
                        <Array as="points">
                            <mxPoint x="264" y="510"/>
                            <mxPoint x="364" y="510"/>
                            <mxPoint x="364" y="340"/>
                            <mxPoint x="384" y="340"/>
                            <mxPoint x="384" y="330"/>
                            <mxPoint x="404" y="330"/>
                        </Array>
                    </mxGeometry>
                </mxCell>
                <mxCell id="471" value="&lt;font style=&quot;font-size: 13px;&quot;&gt;OpSt&lt;br&gt;&lt;span style=&quot;&quot;&gt;StorN&lt;/span&gt;&lt;br&gt;&lt;/font&gt;" style="rounded=0;whiteSpace=wrap;html=1;strokeColor=#6F0000;strokeWidth=2;fontSize=14;fillColor=none;fontColor=default;" parent="1" vertex="1">
                    <mxGeometry x="234" y="521" width="40" height="39.13" as="geometry"/>
                </mxCell>
                <mxCell id="480" style="edgeStyle=none;html=1;exitX=1;exitY=0.25;exitDx=0;exitDy=0;entryX=1;entryY=0.604;entryDx=0;entryDy=0;entryPerimeter=0;strokeWidth=1;fontSize=14;fillColor=#a20025;strokeColor=#82B366;" parent="1" source="472" target="83" edge="1">
                    <mxGeometry relative="1" as="geometry"/>
                </mxCell>
                <mxCell id="472" value="&lt;font style=&quot;font-size: 13px;&quot;&gt;OpSt&lt;br&gt;&lt;span style=&quot;&quot;&gt;NetwN&lt;/span&gt;&lt;br&gt;&lt;/font&gt;" style="rounded=0;whiteSpace=wrap;html=1;strokeColor=#6F0000;strokeWidth=2;fontSize=14;fillColor=none;fontColor=default;" parent="1" vertex="1">
                    <mxGeometry x="283.23" y="521" width="40" height="39.13" as="geometry"/>
                </mxCell>
                <mxCell id="447" value="&lt;span&gt;NG&lt;/span&gt;" style="whiteSpace=wrap;html=1;aspect=fixed;fillColor=none;gradientColor=#7ea6e0;strokeColor=#6c8ebf;strokeWidth=2;fontColor=default;fontStyle=0;" parent="1" vertex="1">
                    <mxGeometry x="293.22999999999996" y="560.13" width="20" height="20" as="geometry"/>
                </mxCell>
                <mxCell id="476" style="edgeStyle=none;html=1;exitX=0.5;exitY=1;exitDx=0;exitDy=0;strokeWidth=1;fillColor=#dae8fc;strokeColor=#6c8ebf;gradientColor=#7ea6e0;" parent="1" source="473" edge="1">
                    <mxGeometry relative="1" as="geometry">
                        <mxPoint x="253.9540229885058" y="739.9999999999999" as="targetPoint"/>
                    </mxGeometry>
                </mxCell>
                <mxCell id="473" value="&lt;span&gt;NG&lt;/span&gt;" style="whiteSpace=wrap;html=1;aspect=fixed;fillColor=none;gradientColor=#7ea6e0;strokeColor=#6c8ebf;strokeWidth=2;fontColor=default;fontStyle=0;" parent="1" vertex="1">
                    <mxGeometry x="244.00000000000006" y="560.13" width="20" height="20" as="geometry"/>
                </mxCell>
                <mxCell id="453" value="&lt;font size=&quot;1&quot; style=&quot;&quot;&gt;&lt;b style=&quot;font-size: 11px;&quot;&gt;OpenStack Environment&amp;nbsp;&lt;/b&gt;&lt;br&gt;&lt;/font&gt;" style="text;html=1;align=center;verticalAlign=middle;resizable=0;points=[];autosize=1;strokeColor=none;fillColor=none;fontSize=16;fontColor=default;" parent="1" vertex="1">
                    <mxGeometry x="179.99999999999991" y="580" width="150" height="30" as="geometry"/>
                </mxCell>
                <mxCell id="478" value="&lt;font style=&quot;&quot;&gt;&lt;font color=&quot;#6f0000&quot; style=&quot;font-size: 20px;&quot;&gt;...&lt;/font&gt;&lt;br style=&quot;font-size: 14px;&quot;&gt;&lt;/font&gt;" style="text;html=1;align=center;verticalAlign=middle;resizable=0;points=[];autosize=1;strokeColor=none;fillColor=none;fontColor=default;rotation=0;fontStyle=1;fontSize=14;" parent="1" vertex="1">
                    <mxGeometry x="253.99999999999977" y="471.2899999999999" width="40" height="40" as="geometry"/>
                </mxCell>
                <mxCell id="479" value="&lt;font style=&quot;&quot;&gt;&lt;font color=&quot;#6f0000&quot; style=&quot;font-size: 20px;&quot;&gt;...&lt;/font&gt;&lt;br style=&quot;font-size: 14px;&quot;&gt;&lt;/font&gt;" style="text;html=1;align=center;verticalAlign=middle;resizable=0;points=[];autosize=1;strokeColor=none;fillColor=none;fontColor=default;rotation=90;fontStyle=1;fontSize=14;" parent="1" vertex="1">
                    <mxGeometry x="273.9999999999998" y="429.99999999999983" width="40" height="40" as="geometry"/>
                </mxCell>
                <mxCell id="485" value="r-class-..." style="rounded=0;whiteSpace=wrap;html=1;strokeWidth=1;fontSize=14;fillColor=none;fontColor=default;align=center;" parent="1" vertex="1">
                    <mxGeometry x="657.5" y="291.10999999999996" width="60" height="19.22" as="geometry"/>
                </mxCell>
                <mxCell id="501" value="" style="whiteSpace=wrap;html=1;aspect=fixed;strokeColor=#B20000;strokeWidth=2;fontSize=12;fontColor=#ffffff;fillColor=#e51400;" parent="1" vertex="1">
                    <mxGeometry x="741.4" y="320.78" width="9.09" height="9.09" as="geometry"/>
                </mxCell>
                <mxCell id="503" value="" style="whiteSpace=wrap;html=1;aspect=fixed;strokeColor=#C73500;strokeWidth=2;fontSize=12;fontColor=#000000;fillColor=#fa6800;" parent="1" vertex="1">
                    <mxGeometry x="734.6299999999999" y="340.78" width="9.09" height="9.09" as="geometry"/>
                </mxCell>
                <mxCell id="504" value="" style="whiteSpace=wrap;html=1;aspect=fixed;strokeColor=#A50040;strokeWidth=2;fontSize=12;fontColor=#ffffff;fillColor=#d80073;" parent="1" vertex="1">
                    <mxGeometry x="725.54" y="360.78" width="9.09" height="9.09" as="geometry"/>
                </mxCell>
                <mxCell id="508" value="" style="whiteSpace=wrap;html=1;aspect=fixed;strokeColor=#314354;strokeWidth=2;fontSize=12;fontColor=#ffffff;fillColor=#647687;" parent="1" vertex="1">
                    <mxGeometry x="728.3499999999999" y="217.09" width="9.09" height="9.09" as="geometry"/>
                </mxCell>
                <mxCell id="511" value="" style="whiteSpace=wrap;html=1;aspect=fixed;strokeColor=#314354;strokeWidth=2;fontSize=12;fontColor=#ffffff;fillColor=#647687;" parent="1" vertex="1">
                    <mxGeometry x="734.6300000000001" y="194" width="9.09" height="9.09" as="geometry"/>
                </mxCell>
                <mxCell id="531" value="" style="whiteSpace=wrap;html=1;aspect=fixed;strokeColor=#BD7000;strokeWidth=2;fontSize=12;fontColor=#000000;fillColor=#f0a30a;" parent="1" vertex="1">
                    <mxGeometry x="737.4399999999999" y="451.50000000000006" width="9.09" height="9.09" as="geometry"/>
                </mxCell>
                <mxCell id="533" value="" style="whiteSpace=wrap;html=1;aspect=fixed;strokeColor=#BD7000;strokeWidth=2;fontSize=12;fontColor=#000000;fillColor=#f0a30a;" parent="1" vertex="1">
                    <mxGeometry x="728.35" y="471.4600000000001" width="9.09" height="9.09" as="geometry"/>
                </mxCell>
                <mxCell id="534" value="" style="whiteSpace=wrap;html=1;aspect=fixed;strokeColor=#BD7000;strokeWidth=2;fontSize=12;fontColor=#000000;fillColor=#f0a30a;" parent="1" vertex="1">
                    <mxGeometry x="719.2599999999999" y="495.00000000000006" width="9.09" height="9.09" as="geometry"/>
                </mxCell>
                <mxCell id="539" value="" style="rounded=0;whiteSpace=wrap;html=1;strokeColor=#005700;fontSize=11;fillColor=none;gradientColor=#97d077;dashed=1;strokeWidth=2;" parent="1" vertex="1">
                    <mxGeometry x="990.23" y="201.87" width="109.6" height="100" as="geometry"/>
                </mxCell>
                <mxCell id="540" value="" style="rounded=0;whiteSpace=wrap;html=1;strokeColor=#005700;fontSize=11;fillColor=none;gradientColor=#97d077;dashed=1;strokeWidth=2;" parent="1" vertex="1">
                    <mxGeometry x="819.2" y="201.87" width="109.6" height="100" as="geometry"/>
                </mxCell>
                <mxCell id="374" style="edgeStyle=none;html=1;exitX=1;exitY=0.5;exitDx=0;exitDy=0;strokeColor=#6F0000;strokeWidth=2;fontSize=14;fontColor=#D6B656;startArrow=classic;startFill=1;endArrow=none;endFill=0;fillColor=#a20025;" parent="1" source="330" edge="1">
                    <mxGeometry relative="1" as="geometry">
                        <mxPoint x="959.83" y="226.87" as="targetPoint"/>
                    </mxGeometry>
                </mxCell>
                <mxCell id="375" style="edgeStyle=none;html=1;exitX=0;exitY=0.5;exitDx=0;exitDy=0;strokeColor=#6F0000;strokeWidth=2;fontSize=14;fontColor=#D6B656;startArrow=classic;startFill=1;endArrow=none;endFill=0;fillColor=#a20025;" parent="1" source="338" edge="1">
                    <mxGeometry relative="1" as="geometry">
                        <mxPoint x="959.83" y="226.87" as="targetPoint"/>
                    </mxGeometry>
                </mxCell>
                <mxCell id="376" style="edgeStyle=none;html=1;exitX=1.012;exitY=0.499;exitDx=0;exitDy=0;strokeColor=#6F0000;strokeWidth=2;fontSize=14;fontColor=#D6B656;startArrow=classic;startFill=1;endArrow=none;endFill=0;fillColor=#a20025;exitPerimeter=0;" parent="1" source="334" edge="1">
                    <mxGeometry relative="1" as="geometry">
                        <mxPoint x="959.83" y="276.87" as="targetPoint"/>
                    </mxGeometry>
                </mxCell>
                <mxCell id="377" style="edgeStyle=none;html=1;exitX=-0.008;exitY=0.467;exitDx=0;exitDy=0;strokeColor=#6F0000;strokeWidth=2;fontSize=14;fontColor=#D6B656;startArrow=classic;startFill=1;endArrow=none;endFill=0;fillColor=#a20025;exitPerimeter=0;" parent="1" source="342" edge="1">
                    <mxGeometry relative="1" as="geometry">
                        <mxPoint x="959.83" y="276.87" as="targetPoint"/>
                    </mxGeometry>
                </mxCell>
                <mxCell id="541" value="&lt;font style=&quot;font-size: 12px;&quot;&gt;service-network-0&lt;/font&gt;" style="text;html=1;align=center;verticalAlign=middle;resizable=0;points=[];autosize=1;strokeColor=none;fillColor=none;fontSize=16;fontColor=default;rotation=0;" parent="1" vertex="1">
                    <mxGeometry x="814.0000000000003" y="292.1999999999998" width="120" height="30" as="geometry"/>
                </mxCell>
                <mxCell id="543" value="&lt;font style=&quot;font-size: 14px;&quot;&gt;host-aggregation-...&lt;/font&gt;" style="text;html=1;align=center;verticalAlign=middle;resizable=0;points=[];autosize=1;strokeColor=none;fillColor=none;fontSize=16;fontColor=default;rotation=0;" parent="1" vertex="1">
                    <mxGeometry x="975.0300000000003" y="311.7399999999999" width="140" height="30" as="geometry"/>
                </mxCell>
                <mxCell id="350" value="&lt;font style=&quot;font-size: 14px;&quot;&gt;host-aggregation-0&lt;/font&gt;" style="text;html=1;align=center;verticalAlign=middle;resizable=0;points=[];autosize=1;strokeColor=none;fillColor=none;fontSize=16;fontColor=default;rotation=0;" parent="1" vertex="1">
                    <mxGeometry x="804.0000000000003" y="311.7399999999999" width="140" height="30" as="geometry"/>
                </mxCell>
                <mxCell id="542" value="&lt;font style=&quot;font-size: 12px;&quot;&gt;service-network-...&lt;/font&gt;" style="text;html=1;align=center;verticalAlign=middle;resizable=0;points=[];autosize=1;strokeColor=none;fillColor=none;fontSize=16;fontColor=default;rotation=0;" parent="1" vertex="1">
                    <mxGeometry x="985.0300000000004" y="292.1999999999998" width="120" height="30" as="geometry"/>
                </mxCell>
                <mxCell id="544" value="&lt;span style=&quot;&quot;&gt;&lt;font style=&quot;&quot;&gt;&lt;font color=&quot;#314354&quot; style=&quot;font-size: 35px;&quot;&gt;...&lt;/font&gt;&lt;br&gt;&lt;/font&gt;&lt;/span&gt;" style="text;html=1;align=center;verticalAlign=middle;resizable=0;points=[];autosize=1;strokeColor=none;fillColor=none;fontColor=default;rotation=0;fontStyle=1" parent="1" vertex="1">
                    <mxGeometry x="1019.3199999999997" y="302.97999999999985" width="50" height="60" as="geometry"/>
                </mxCell>
                <mxCell id="548" value="&lt;font size=&quot;1&quot; style=&quot;&quot;&gt;&lt;span style=&quot;font-size: 12px;&quot;&gt;&lt;b&gt;OpenStack Environment (Compute)&lt;/b&gt;&lt;br&gt;&lt;/span&gt;&lt;/font&gt;" style="text;html=1;align=center;verticalAlign=middle;resizable=0;points=[];autosize=1;strokeColor=none;fillColor=none;fontSize=16;fontColor=default;" parent="1" vertex="1">
                    <mxGeometry x="778.9999999999999" y="155" width="230" height="30" as="geometry"/>
                </mxCell>
                <mxCell id="384" style="edgeStyle=none;html=1;strokeColor=#6F0000;strokeWidth=2;fontSize=14;fontColor=#D6B656;startArrow=classic;startFill=1;endArrow=none;endFill=0;fillColor=#a20025;" parent="1" edge="1">
                    <mxGeometry relative="1" as="geometry">
                        <mxPoint x="959.83" y="261.87" as="targetPoint"/>
                        <mxPoint x="959.83" y="421.87" as="sourcePoint"/>
                    </mxGeometry>
                </mxCell>
                <mxCell id="547" value="&lt;font size=&quot;1&quot; style=&quot;&quot;&gt;&lt;span style=&quot;font-size: 12px;&quot;&gt;&lt;b&gt;OpenStack Environment (Storage)&lt;/b&gt;&lt;br&gt;&lt;/span&gt;&lt;/font&gt;" style="text;html=1;align=center;verticalAlign=middle;resizable=0;points=[];autosize=1;strokeColor=none;fillColor=none;fontSize=16;fontColor=default;" parent="1" vertex="1">
                    <mxGeometry x="784.0000000000001" y="345.00000000000017" width="220" height="30" as="geometry"/>
                </mxCell>
                <mxCell id="554" value="&lt;font style=&quot;font-size: 12px;&quot;&gt;service-network-0&lt;/font&gt;" style="text;html=1;align=center;verticalAlign=middle;resizable=0;points=[];autosize=1;strokeColor=none;fillColor=none;fontSize=16;fontColor=default;rotation=0;" parent="1" vertex="1">
                    <mxGeometry x="814.0000000000005" y="471.86999999999983" width="120" height="30" as="geometry"/>
                </mxCell>
                <mxCell id="555" value="&lt;font style=&quot;font-size: 12px;&quot;&gt;service-network-...&lt;/font&gt;" style="text;html=1;align=center;verticalAlign=middle;resizable=0;points=[];autosize=1;strokeColor=none;fillColor=none;fontSize=16;fontColor=default;rotation=0;" parent="1" vertex="1">
                    <mxGeometry x="984.3100000000005" y="472.4599999999998" width="120" height="30" as="geometry"/>
                </mxCell>
                <mxCell id="512" style="edgeStyle=none;html=1;exitX=1;exitY=0.25;exitDx=0;exitDy=0;entryX=1.016;entryY=0.516;entryDx=0;entryDy=0;strokeColor=default;strokeWidth=1;fontSize=12;fontColor=default;entryPerimeter=0;" parent="1" source="485" target="219" edge="1">
                    <mxGeometry relative="1" as="geometry">
                        <Array as="points">
                            <mxPoint x="731" y="291"/>
                            <mxPoint x="731" y="244"/>
                        </Array>
                    </mxGeometry>
                </mxCell>
                <mxCell id="513" value="" style="whiteSpace=wrap;html=1;aspect=fixed;strokeColor=#314354;strokeWidth=2;fontSize=12;fontColor=#ffffff;fillColor=#647687;" parent="1" vertex="1">
                    <mxGeometry x="721" y="240.78" width="9.09" height="9.09" as="geometry"/>
                </mxCell>
                <mxCell id="557" style="edgeStyle=none;html=1;endArrow=none;endFill=0;startArrow=classic;startFill=1;fillColor=#a20025;strokeColor=#6F0000;strokeWidth=2;exitX=0.5;exitY=-0.037;exitDx=0;exitDy=0;exitPerimeter=0;" parent="1" source="556" edge="1">
                    <mxGeometry relative="1" as="geometry">
                        <mxPoint x="959.83" y="411.87" as="targetPoint"/>
                        <mxPoint x="959.83" y="511.87" as="sourcePoint"/>
                    </mxGeometry>
                </mxCell>
                <mxCell id="558" style="edgeStyle=none;html=1;entryX=0.003;entryY=0.476;entryDx=0;entryDy=0;strokeWidth=2;startArrow=classic;startFill=1;endArrow=classic;endFill=1;entryPerimeter=0;strokeColor=#005700;" parent="1" source="556" target="540" edge="1">
                    <mxGeometry relative="1" as="geometry">
                        <Array as="points">
                            <mxPoint x="794" y="540"/>
                            <mxPoint x="794" y="250"/>
                        </Array>
                    </mxGeometry>
                </mxCell>
                <mxCell id="561" style="edgeStyle=none;html=1;exitX=1;exitY=0.5;exitDx=0;exitDy=0;entryX=0.998;entryY=0.478;entryDx=0;entryDy=0;entryPerimeter=0;strokeColor=#005700;strokeWidth=2;startArrow=classic;startFill=1;endArrow=classic;endFill=1;" parent="1" source="556" target="539" edge="1">
                    <mxGeometry relative="1" as="geometry">
                        <Array as="points">
                            <mxPoint x="1124" y="540"/>
                            <mxPoint x="1124" y="250"/>
                        </Array>
                    </mxGeometry>
                </mxCell>
                <mxCell id="556" value="&lt;span style=&quot;font-size: 15px;&quot;&gt;Open Stack Environment (Network)&lt;br&gt;&lt;/span&gt;" style="rounded=0;whiteSpace=wrap;html=1;strokeColor=#6F0000;strokeWidth=3;fillColor=none;fontColor=default;rotation=0;dashed=1;" parent="1" vertex="1">
                    <mxGeometry x="819.83" y="516.87" width="280" height="45" as="geometry"/>
                </mxCell>
                <mxCell id="563" style="edgeStyle=none;html=1;exitX=0.25;exitY=1;exitDx=0;exitDy=0;strokeColor=#d6b656;strokeWidth=2;startArrow=classic;startFill=1;endArrow=classic;endFill=1;entryX=0.315;entryY=0;entryDx=0;entryDy=0;entryPerimeter=0;fillColor=#fff2cc;gradientColor=#ffd966;" parent="1" source="556" target="566" edge="1">
                    <mxGeometry relative="1" as="geometry">
                        <mxPoint x="890" y="680" as="targetPoint"/>
                    </mxGeometry>
                </mxCell>
                <mxCell id="564" style="edgeStyle=none;html=1;exitX=0.5;exitY=1;exitDx=0;exitDy=0;strokeColor=#d6b656;strokeWidth=2;startArrow=classic;startFill=1;endArrow=classic;endFill=1;entryX=0.501;entryY=-0.016;entryDx=0;entryDy=0;entryPerimeter=0;fillColor=#fff2cc;gradientColor=#ffd966;" parent="1" source="556" target="566" edge="1">
                    <mxGeometry relative="1" as="geometry">
                        <mxPoint x="959.6470588235293" y="680" as="targetPoint"/>
                    </mxGeometry>
                </mxCell>
                <mxCell id="565" style="edgeStyle=none;html=1;exitX=0.75;exitY=1;exitDx=0;exitDy=0;strokeColor=#d6b656;strokeWidth=2;startArrow=classic;startFill=1;endArrow=classic;endFill=1;fillColor=#fff2cc;gradientColor=#ffd966;" parent="1" source="556" edge="1">
                    <mxGeometry relative="1" as="geometry">
                        <mxPoint x="1030" y="600" as="targetPoint"/>
                    </mxGeometry>
                </mxCell>
                <mxCell id="567" style="edgeStyle=none;html=1;exitX=0.256;exitY=1.008;exitDx=0;exitDy=0;strokeColor=#990000;strokeWidth=2;startArrow=classic;startFill=1;endArrow=classic;endFill=1;exitPerimeter=0;" parent="1" source="566" edge="1">
                    <mxGeometry relative="1" as="geometry">
                        <mxPoint x="920" y="720" as="targetPoint"/>
                        <Array as="points">
                            <mxPoint x="866" y="720"/>
                        </Array>
                    </mxGeometry>
                </mxCell>
                <mxCell id="568" style="edgeStyle=none;html=1;exitX=0.499;exitY=1.052;exitDx=0;exitDy=0;strokeColor=#990000;strokeWidth=2;startArrow=classic;startFill=1;endArrow=classic;endFill=1;exitPerimeter=0;" parent="1" source="566" edge="1">
                    <mxGeometry relative="1" as="geometry">
                        <mxPoint x="960" y="700" as="targetPoint"/>
                    </mxGeometry>
                </mxCell>
                <mxCell id="570" style="edgeStyle=none;html=1;exitX=0.737;exitY=1.045;exitDx=0;exitDy=0;strokeColor=#990000;strokeWidth=2;startArrow=classic;startFill=1;endArrow=classic;endFill=1;exitPerimeter=0;" parent="1" source="566" edge="1">
                    <mxGeometry relative="1" as="geometry">
                        <mxPoint x="1000" y="720" as="targetPoint"/>
                        <Array as="points">
                            <mxPoint x="1050" y="720"/>
                        </Array>
                    </mxGeometry>
                </mxCell>
                <mxCell id="566" value="&lt;b&gt;BARE-METAL SERVER-NETWORK-SECURITY INFRASTRUCTURE&lt;/b&gt;" style="rounded=0;whiteSpace=wrap;html=1;strokeWidth=3;fillColor=none;fontColor=default;strokeColor=#314354;" parent="1" vertex="1">
                    <mxGeometry x="770" y="600" width="380" height="40" as="geometry"/>
                </mxCell>
                <mxCell id="571" value="" style="sketch=0;html=1;aspect=fixed;strokeColor=none;shadow=0;align=center;verticalAlign=top;fillColor=#3B8DF1;shape=mxgraph.gcp2.globe_world;strokeWidth=3;" parent="1" vertex="1">
                    <mxGeometry x="926.31" y="709.09" width="67.37" height="64" as="geometry"/>
                </mxCell>
                <mxCell id="572" value="&lt;font size=&quot;1&quot; style=&quot;&quot;&gt;&lt;span style=&quot;font-size: 14px;&quot;&gt;WWW&lt;br&gt;&lt;/span&gt;&lt;/font&gt;" style="text;html=1;align=center;verticalAlign=middle;resizable=0;points=[];autosize=1;strokeColor=none;fillColor=none;fontSize=16;fontColor=default;" parent="1" vertex="1">
                    <mxGeometry x="19.999999999999886" y="713.09" width="60" height="30" as="geometry"/>
                </mxCell>
                <mxCell id="573" value="&lt;font size=&quot;1&quot; style=&quot;&quot;&gt;&lt;span style=&quot;font-size: 14px;&quot;&gt;WWW&lt;br&gt;&lt;/span&gt;&lt;/font&gt;" style="text;html=1;align=center;verticalAlign=middle;resizable=0;points=[];autosize=1;strokeColor=none;fillColor=none;fontSize=16;fontColor=default;" parent="1" vertex="1">
                    <mxGeometry x="929.9999999999999" y="770.09" width="60" height="30" as="geometry"/>
                </mxCell>
            </root>
        </mxGraphModel>
    </diagram>
</mxfile>